<svg id="my-svg" width="100%" xmlns="http://www.w3.org/2000/svg" xmlns:xlink="http://www.w3.org/1999/xlink" class="flowchart" style="max-width: 806.777px; background-color: transparent;" viewBox="0 0 806.77685546875 318" role="graphics-document document" aria-roledescription="flowchart-v2"><style>#my-svg{font-size:16px;fill:#fff;}@keyframes edge-animation-frame{from{stroke-dashoffset:0;}}@keyframes dash{to{stroke-dashoffset:0;}}#my-svg .edge-animation-slow{stroke-dasharray:9,5!important;stroke-dashoffset:900;animation:dash 50s linear infinite;stroke-linecap:round;}#my-svg .edge-animation-fast{stroke-dasharray:9,5!important;stroke-dashoffset:900;animation:dash 20s linear infinite;stroke-linecap:round;}#my-svg .error-icon{fill:#fff;}#my-svg .error-text{fill:#000000;stroke:#000000;}#my-svg .edge-thickness-normal{stroke-width:1px;}#my-svg .edge-thickness-thick{stroke-width:3.5px;}#my-svg .edge-pattern-solid{stroke-dasharray:0;}#my-svg .edge-thickness-invisible{stroke-width:0;fill:none;}#my-svg .edge-pattern-dashed{stroke-dasharray:3;}#my-svg .edge-pattern-dotted{stroke-dasharray:2;}#my-svg .marker{fill:#1A202C;stroke:#1A202C;}#my-svg .marker.cross{stroke:#1A202C;}#my-svg svg{font-size:16px;}#my-svg p{margin:0;}#my-svg .label{color:#fff;}#my-svg .cluster-label text{fill:#000000;}#my-svg .cluster-label span{color:#000000;}#my-svg .cluster-label span p{background-color:transparent;}#my-svg .label text,#my-svg span{fill:#fff;color:#fff;}#my-svg .node rect,#my-svg .node circle,#my-svg .node ellipse,#my-svg .node polygon,#my-svg .node path{fill:#FF2D20;stroke:#BC002D;stroke-width:1px;}#my-svg .rough-node .label text,#my-svg .node .label text,#my-svg .image-shape .label,#my-svg .icon-shape .label{text-anchor:middle;}#my-svg .node .katex path{fill:#000;stroke:#000;stroke-width:1px;}#my-svg .rough-node .label,#my-svg .node .label,#my-svg .image-shape .label,#my-svg .icon-shape .label{text-align:center;}#my-svg .node.clickable{cursor:pointer;}#my-svg .root .anchor path{fill:#1A202C!important;stroke-width:0;stroke:#1A202C;}#my-svg .arrowheadPath{fill:#0b0b0b;}#my-svg .edgePath .path{stroke:#1A202C;stroke-width:1px;}#my-svg .flowchart-link{stroke:#1A202C;fill:none;}#my-svg .edgeLabel{background-color:#fff;text-align:center;}#my-svg .edgeLabel p{background-color:#fff;}#my-svg .edgeLabel rect{opacity:0.5;background-color:#fff;fill:#fff;}#my-svg .labelBkg{background-color:rgba(255, 255, 255, 0.5);}#my-svg .cluster rect{fill:#fff;stroke:hsl(0, 0%, 90%);stroke-width:1px;}#my-svg .cluster text{fill:#000000;}#my-svg .cluster span{color:#000000;}#my-svg div.mermaidTooltip{position:absolute;text-align:center;max-width:200px;padding:2px;font-size:12px;background:#fff;border:1px solid hsl(0, 0%, 90%);border-radius:2px;pointer-events:none;z-index:100;}#my-svg .flowchartTitleText{text-anchor:middle;font-size:18px;fill:#fff;}#my-svg rect.text{fill:none;stroke-width:0;}#my-svg .icon-shape,#my-svg .image-shape{background-color:#fff;text-align:center;}#my-svg .icon-shape p,#my-svg .image-shape p{background-color:#fff;padding:2px;}#my-svg .icon-shape .label rect,#my-svg .image-shape .label rect{opacity:0.5;background-color:#fff;fill:#fff;}#my-svg .label-icon{display:inline-block;height:1em;overflow:visible;vertical-align:-0.125em;}#my-svg .node .label-icon path{fill:currentColor;stroke:revert;stroke-width:revert;}#my-svg .node .neo-node{stroke:#BC002D;}#my-svg [data-look="neo"].node rect,#my-svg [data-look="neo"].cluster rect,#my-svg [data-look="neo"].node polygon{stroke:url(#my-svg-gradient);filter:drop-shadow( 1px 2px 2px rgba(185,185,185,1));}#my-svg [data-look="neo"].node path{stroke:url(#my-svg-gradient);stroke-width:1px;}#my-svg [data-look="neo"].node .outer-path{filter:drop-shadow( 1px 2px 2px rgba(185,185,185,1));}#my-svg [data-look="neo"].node .neo-line path{stroke:#BC002D;filter:none;}#my-svg [data-look="neo"].node circle{stroke:url(#my-svg-gradient);filter:drop-shadow( 1px 2px 2px rgba(185,185,185,1));}#my-svg [data-look="neo"].node circle .state-start{fill:#000000;}#my-svg [data-look="neo"].icon-shape .icon{fill:url(#my-svg-gradient);filter:drop-shadow( 1px 2px 2px rgba(185,185,185,1));}#my-svg [data-look="neo"].icon-shape .icon-neo path{stroke:url(#my-svg-gradient);filter:drop-shadow( 1px 2px 2px rgba(185,185,185,1));}#my-svg :root{--mermaid-font-family:"trebuchet ms",verdana,arial,sans-serif;}#my-svg .q&gt;*{fill:#fff!important;stroke:#1A202C!important;stroke-width:2px!important;color:#1A202C!important;}#my-svg .q span{fill:#fff!important;stroke:#1A202C!important;stroke-width:2px!important;color:#1A202C!important;}#my-svg .q tspan{fill:#1A202C!important;}#my-svg .a&gt;*{fill:#BC002D!important;stroke:#BC002D!important;color:#fff!important;}#my-svg .a span{fill:#BC002D!important;stroke:#BC002D!important;color:#fff!important;}#my-svg .a tspan{fill:#fff!important;}#my-svg .b&gt;*{fill:#FF2D20!important;stroke:#BC002D!important;color:#fff!important;}#my-svg .b span{fill:#FF2D20!important;stroke:#BC002D!important;color:#fff!important;}#my-svg .b tspan{fill:#fff!important;}#my-svg .c&gt;*{fill:#1A202C!important;stroke:#1A202C!important;color:#fff!important;}#my-svg .c span{fill:#1A202C!important;stroke:#1A202C!important;color:#fff!important;}#my-svg .c tspan{fill:#fff!important;}</style><g><marker id="my-svg_flowchart-v2-pointEnd" class="marker flowchart-v2" viewBox="0 0 10 10" refX="5" refY="5" markerUnits="userSpaceOnUse" markerWidth="8" markerHeight="8" orient="auto"><path d="M 0 0 L 10 5 L 0 10 z" class="arrowMarkerPath" style="stroke-width: 1; stroke-dasharray: 1, 0;"/></marker><marker id="my-svg_flowchart-v2-pointStart" class="marker flowchart-v2" viewBox="0 0 10 10" refX="4.5" refY="5" markerUnits="userSpaceOnUse" markerWidth="8" markerHeight="8" orient="auto"><path d="M 0 5 L 10 10 L 10 0 z" class="arrowMarkerPath" style="stroke-width: 1; stroke-dasharray: 1, 0;"/></marker><marker id="my-svg_flowchart-v2-pointEnd-margin" class="marker flowchart-v2" viewBox="0 0 11.5 14" refX="11.5" refY="7" markerUnits="userSpaceOnUse" markerWidth="10.5" markerHeight="14" orient="auto"><path d="M 0 0 L 11.5 7 L 0 14 z" class="arrowMarkerPath" style="stroke-width: 0; stroke-dasharray: 1, 0;"/></marker><marker id="my-svg_flowchart-v2-pointStart-margin" class="marker flowchart-v2" viewBox="0 0 11.5 14" refX="1" refY="7" markerUnits="userSpaceOnUse" markerWidth="11.5" markerHeight="14" orient="auto"><polygon points="0,7 11.5,14 11.5,0" class="arrowMarkerPath" style="stroke-width: 0; stroke-dasharray: 1, 0;"/></marker><marker id="my-svg_flowchart-v2-circleEnd" class="marker flowchart-v2" viewBox="0 0 10 10" refX="11" refY="5" markerUnits="userSpaceOnUse" markerWidth="11" markerHeight="11" orient="auto"><circle cx="5" cy="5" r="5" class="arrowMarkerPath" style="stroke-width: 1; stroke-dasharray: 1, 0;"/></marker><marker id="my-svg_flowchart-v2-circleStart" class="marker flowchart-v2" viewBox="0 0 10 10" refX="-1" refY="5" markerUnits="userSpaceOnUse" markerWidth="11" markerHeight="11" orient="auto"><circle cx="5" cy="5" r="5" class="arrowMarkerPath" style="stroke-width: 1; stroke-dasharray: 1, 0;"/></marker><marker id="my-svg_flowchart-v2-circleEnd-margin" class="marker flowchart-v2" viewBox="0 0 10 10" refY="5" refX="12.25" markerUnits="userSpaceOnUse" markerWidth="14" markerHeight="14" orient="auto"><circle cx="5" cy="5" r="5" class="arrowMarkerPath" style="stroke-width: 0; stroke-dasharray: 1, 0;"/></marker><marker id="my-svg_flowchart-v2-circleStart-margin" class="marker flowchart-v2" viewBox="0 0 10 10" refX="-2" refY="5" markerUnits="userSpaceOnUse" markerWidth="14" markerHeight="14" orient="auto"><circle cx="5" cy="5" r="5" class="arrowMarkerPath" style="stroke-width: 0; stroke-dasharray: 1, 0;"/></marker><marker id="my-svg_flowchart-v2-crossEnd" class="marker cross flowchart-v2" viewBox="0 0 11 11" refX="12" refY="5.2" markerUnits="userSpaceOnUse" markerWidth="11" markerHeight="11" orient="auto"><path d="M 1,1 l 9,9 M 10,1 l -9,9" class="arrowMarkerPath" style="stroke-width: 2; stroke-dasharray: 1, 0;"/></marker><marker id="my-svg_flowchart-v2-crossStart" class="marker cross flowchart-v2" viewBox="0 0 11 11" refX="-1" refY="5.2" markerUnits="userSpaceOnUse" markerWidth="11" markerHeight="11" orient="auto"><path d="M 1,1 l 9,9 M 10,1 l -9,9" class="arrowMarkerPath" style="stroke-width: 2; stroke-dasharray: 1, 0;"/></marker><marker id="my-svg_flowchart-v2-crossEnd-margin" class="marker cross flowchart-v2" viewBox="0 0 15 15" refX="17.7" refY="7.5" markerUnits="userSpaceOnUse" markerWidth="12" markerHeight="12" orient="auto"><path d="M 1,1 L 14,14 M 1,14 L 14,1" class="arrowMarkerPath" style="stroke-width: 2.5;"/></marker><marker id="my-svg_flowchart-v2-crossStart-margin" class="marker cross flowchart-v2" viewBox="0 0 15 15" refX="-3.5" refY="7.5" markerUnits="userSpaceOnUse" markerWidth="12" markerHeight="12" orient="auto"><path d="M 1,1 L 14,14 M 1,14 L 14,1" class="arrowMarkerPath" style="stroke-width: 2.5; stroke-dasharray: 1, 0;"/></marker><g class="root"><g class="clusters"/><g class="edgePaths"><path d="M76.042,135.5L80.126,135.417C84.209,135.333,92.376,135.167,99.959,135.083C107.542,135,114.542,135,118.042,135L121.542,135" id="my-svg-L_start_Q1_0" class="edge-thickness-normal edge-pattern-solid edge-thickness-normal edge-pattern-solid flowchart-link" style=";" data-edge="true" data-et="edge" data-id="L_start_Q1_0" data-points="W3sieCI6NzYuMDQyNDYyNDMxODI3ODQsInkiOjEzNS41fSx7IngiOjEwMC41NDI0NjUyMDk5NjA5NCwieSI6MTM1fSx7IngiOjEyNS41NDI0NjUyMDk5NjA5NCwieSI6MTM1fV0=" data-look="classic" marker-end="url(#my-svg_flowchart-v2-pointEnd)"/><path d="M267.077,98.253L279.256,89.711C291.435,81.169,315.793,64.084,334.625,55.542C353.457,47,366.761,47,373.414,47L380.066,47" id="my-svg-L_Q1_B_0" class="edge-thickness-normal edge-pattern-solid edge-thickness-normal edge-pattern-solid flowchart-link" style=";" data-edge="true" data-et="edge" data-id="L_Q1_B_0" data-points="W3sieCI6MjY3LjA3NjUzMzI0NTM4NzcsInkiOjk4LjI1MjgxODAzNTQyNjczfSx7IngiOjM0MC4xNTE4NDAyMDk5NjA5NCwieSI6NDd9LHsieCI6Mzg0LjA2NTkwMjcwOTk2MDk0LCJ5Ijo0N31d" data-look="classic" marker-end="url(#my-svg_flowchart-v2-pointEnd)"/><path d="M267.077,171.747L279.256,180.289C291.435,188.831,315.793,205.916,333.361,214.458C350.928,223,361.704,223,367.092,223L372.48,223" id="my-svg-L_Q1_Q2_0" class="edge-thickness-normal edge-pattern-solid edge-thickness-normal edge-pattern-solid flowchart-link" style=";" data-edge="true" data-et="edge" data-id="L_Q1_Q2_0" data-points="W3sieCI6MjY3LjA3NjUzMzI0NTM4NzcsInkiOjE3MS43NDcxODE5NjQ1NzMyNn0seyJ4IjozNDAuMTUxODQwMjA5OTYwOTQsInkiOjIyM30seyJ4IjozNzYuNDc5OTY1MjA5OTYwOTQsInkiOjIyM31d" data-look="classic" marker-end="url(#my-svg_flowchart-v2-pointEnd)"/><path d="M524.677,197.197L535.032,192.831C545.387,188.465,566.098,179.732,581.841,175.366C597.584,171,608.36,171,613.748,171L619.136,171" id="my-svg-L_Q2_C_0" class="edge-thickness-normal edge-pattern-solid edge-thickness-normal edge-pattern-solid flowchart-link" style=";" data-edge="true" data-et="edge" data-id="L_Q2_C_0" data-points="W3sieCI6NTI0LjY3NjkxNzM1MzI2MzcsInkiOjE5Ny4xOTY5NTIxNDMzMDI3Mn0seyJ4Ijo1ODYuODA4MDkwMjA5OTYwOSwieSI6MTcxfSx7IngiOjYyMy4xMzYyMTUyMDk5NjA5LCJ5IjoxNzF9XQ==" data-look="classic" marker-end="url(#my-svg_flowchart-v2-pointEnd)"/><path d="M524.677,248.803L535.032,253.169C545.387,257.535,566.098,266.268,583.756,270.634C601.415,275,616.022,275,623.325,275L630.628,275" id="my-svg-L_Q2_A_0" class="edge-thickness-normal edge-pattern-solid edge-thickness-normal edge-pattern-solid flowchart-link" style=";" data-edge="true" data-et="edge" data-id="L_Q2_A_0" data-points="W3sieCI6NTI0LjY3NjkxNzM1MzI2MzcsInkiOjI0OC44MDMwNDc4NTY2OTcyOH0seyJ4Ijo1ODYuODA4MDkwMjA5OTYwOSwieSI6Mjc1fSx7IngiOjYzNC42Mjg0MDI3MDk5NjA5LCJ5IjoyNzV9XQ==" data-look="classic" marker-end="url(#my-svg_flowchart-v2-pointEnd)"/></g><g class="edgeLabels"><g class="edgeLabel"><g class="label" data-id="L_start_Q1_0" transform="translate(0, 0)"><foreignObject width="0" height="0"><div xmlns="http://www.w3.org/1999/xhtml" class="labelBkg" style="display: table-cell; white-space: nowrap; line-height: 1.5; max-width: 200px; text-align: center;"><span class="edgeLabel"></span></div></foreignObject></g></g><g class="edgeLabel" transform="translate(340.15184020996094, 47)"><g class="label" data-id="L_Q1_B_0" transform="translate(-11.328125, -12)"><foreignObject width="22.65625" height="24"><div xmlns="http://www.w3.org/1999/xhtml" class="labelBkg" style="display: table-cell; white-space: nowrap; line-height: 1.5; max-width: 200px; text-align: center;"><span class="edgeLabel"><p>Yes</p></span></div></foreignObject></g></g><g class="edgeLabel" transform="translate(340.15184020996094, 223)"><g class="label" data-id="L_Q1_Q2_0" transform="translate(-9.3984375, -12)"><foreignObject width="18.796875" height="24"><div xmlns="http://www.w3.org/1999/xhtml" class="labelBkg" style="display: table-cell; white-space: nowrap; line-height: 1.5; max-width: 200px; text-align: center;"><span class="edgeLabel"><p>No</p></span></div></foreignObject></g></g><g class="edgeLabel" transform="translate(586.8080902099609, 171)"><g class="label" data-id="L_Q2_C_0" transform="translate(-11.328125, -12)"><foreignObject width="22.65625" height="24"><div xmlns="http://www.w3.org/1999/xhtml" class="labelBkg" style="display: table-cell; white-space: nowrap; line-height: 1.5; max-width: 200px; text-align: center;"><span class="edgeLabel"><p>Yes</p></span></div></foreignObject></g></g><g class="edgeLabel" transform="translate(586.8080902099609, 275)"><g class="label" data-id="L_Q2_A_0" transform="translate(-9.3984375, -12)"><foreignObject width="18.796875" height="24"><div xmlns="http://www.w3.org/1999/xhtml" class="labelBkg" style="display: table-cell; white-space: nowrap; line-height: 1.5; max-width: 200px; text-align: center;"><span class="edgeLabel"><p>No</p></span></div></foreignObject></g></g></g><g class="nodes"><g class="node default" id="my-svg-flowchart-start-0" data-look="classic" transform="translate(41.77123260498047, 135)"><g class="basic label-container outer-path"><path d="M-14.28125 -19.5 C-4.422967829360408 -19.5, 5.4353143412791844 -19.5, 14.28125 -19.5 C14.28125 -19.5, 14.281249999999998 -19.5, 14.281249999999998 -19.5 C14.761045542387562 -19.484613890821, 15.240841084775127 -19.469227781642, 15.5306192896239 -19.45993515863156 C15.934442118356202 -19.42097885601176, 16.338264947088504 -19.382022553391963, 16.774854652847864 -19.3399052695533 C17.14602688195633 -19.27989702203467, 17.5171991110648 -19.21988877451604, 18.00884325967676 -19.140403561325776 C18.325204872700805 -19.068196087605497, 18.64156648572485 -18.995988613885213, 19.22751438623539 -18.862249829261074 C19.57134075386026 -18.760203968131446, 19.915167121485126 -18.658158107001817, 20.425860251460602 -18.50658706670804 C20.696464235534023 -18.407002299133215, 20.967068219607444 -18.307417531558386, 21.598956595147794 -18.074876768247425 C21.83389345684949 -17.970877188726472, 22.06883031855119 -17.866877609205517, 22.74198291279238 -17.568892924097174 C22.985877317522316 -17.44165336937139, 23.229771722252252 -17.314413814645604, 23.850242264076783 -16.990714730406097 C24.24052536702439 -16.75412281984116, 24.630808469971996 -16.51753090927623, 24.919180573605697 -16.342718045390892 C25.32919085451156 -16.056712622489957, 25.739201135417424 -15.770707199589026, 25.944405344578712 -15.627565626425154 C26.283187957021905 -15.357395508385647, 26.6219705694651 -15.08722539034614, 26.92170370850187 -14.848196188198123 C27.24525930158239 -14.55435155937427, 27.56881489466291 -14.260506930550417, 27.847059736767985 -14.007812326905688 C28.06505168332425 -13.782717744614686, 28.28304362988051 -13.557623162323685, 28.716670942968648 -13.10986736009568 C28.955995091130937 -12.82874359773445, 29.195319239293223 -12.547619835373219, 29.526963908126582 -12.158051136245305 C29.726547562729532 -11.890627221522331, 29.926131217332486 -11.623203306799358, 30.274608964640635 -11.156274872382312 C30.52722152097725 -10.768194149879964, 30.779834077313865 -10.380113427377617, 30.956533878604247 -10.108655082055241 C31.172390136268564 -9.725380438755977, 31.38824639393288 -9.342105795456712, 31.5699364742735 -9.019496659696287 C31.74654100903553 -8.652773564531236, 31.923145543797553 -8.286050469366185, 32.11229614880834 -7.893275190886684 C32.22271000936827 -7.620550820596886, 32.3331238699282 -7.347826450307087, 32.581384229970325 -6.734618561215508 C32.71639903601835 -6.327975477086843, 32.851413842066385 -5.921332392958178, 32.97527313421488 -5.548287939305138 C33.05557983429985 -5.242043686737183, 33.13588653438481 -4.935799434169228, 33.29234428754556 -4.339158212148133 C33.359031513253896 -3.9967334024859555, 33.42571873896224 -3.6543085928237784, 33.531294776581774 -3.1121979531509023 C33.56998366889365 -2.8121345443659638, 33.608672561205516 -2.5120711355810252, 33.69114270250937 -1.872449005199798 C33.7113851574493 -1.5571564300948457, 33.731627612389225 -1.2418638549898935, 33.77123121591342 -0.6250057626472757 C33.77123121591342 -0.3538241883000968, 33.77123121591342 -0.08264261395291794, 33.77123121591342 0.625005762647271 C33.74910994802719 0.9695623659412964, 33.72698868014096 1.314118969235322, 33.69114270250937 1.8724490051997846 C33.62881239194662 2.3558705854124624, 33.56648208138387 2.83929216562514, 33.531294776581774 3.1121979531508885 C33.442406340763924 3.5686212844979903, 33.353517904946074 4.025044615845092, 33.29234428754556 4.339158212148129 C33.216728284452316 4.627514804125733, 33.141112281359064 4.915871396103336, 32.97527313421489 5.548287939305125 C32.818497662140174 6.020470682414865, 32.66172219006546 6.492653425524604, 32.581384229970325 6.734618561215495 C32.4411699437352 7.080950559075069, 32.30095565750007 7.427282556934644, 32.11229614880834 7.893275190886679 C31.943096069428787 8.244622776020064, 31.773895990049233 8.595970361153448, 31.569936474273504 9.019496659696284 C31.354853338074594 9.40139854754668, 31.139770201875685 9.783300435397075, 30.95653387860425 10.108655082055236 C30.703903414511316 10.496763315680196, 30.45127295041838 10.884871549305156, 30.27460896464064 11.156274872382301 C30.07889494627463 11.418513827078886, 29.883180927908622 11.680752781775471, 29.526963908126582 12.158051136245302 C29.24793077771878 12.485819328657218, 28.96889764731097 12.813587521069135, 28.71667094296866 13.10986736009567 C28.501984859856822 13.331548366963863, 28.28729877674499 13.553229373832057, 27.84705973676799 14.007812326905684 C27.601182342808634 14.23111167054022, 27.355304948849284 14.454411014174752, 26.921703708501887 14.848196188198111 C26.668930467018487 15.049776121702667, 26.41615722553509 15.251356055207223, 25.944405344578715 15.627565626425152 C25.703156945807052 15.795850065933402, 25.46190854703539 15.964134505441653, 24.919180573605708 16.34271804539089 C24.60281991787256 16.5344977340379, 24.28645926213941 16.726277422684905, 23.850242264076787 16.990714730406093 C23.476680575725688 17.18560162394118, 23.10311888737459 17.38048851747627, 22.741982912792388 17.56889292409717 C22.41677873755358 17.712851165636284, 22.09157456231478 17.856809407175398, 21.598956595147804 18.07487676824742 C21.1802995848013 18.228946418077914, 20.7616425744548 18.383016067908404, 20.425860251460616 18.506587066708033 C20.140915204934252 18.591157260809986, 19.85597015840789 18.675727454911943, 19.227514386235413 18.86224982926107 C18.800976658107523 18.95960428228746, 18.374438929979632 19.056958735313852, 18.008843259676766 19.140403561325773 C17.724819786570123 19.186322273822725, 17.44079631346348 19.232240986319677, 16.77485465284788 19.3399052695533 C16.293920394361482 19.38630041906141, 15.81298613587509 19.432695568569525, 15.5306192896239 19.45993515863156 C15.269205016099802 19.46831820557146, 15.007790742575704 19.476701252511365, 14.281250000000004 19.5 C14.281250000000004 19.5, 14.281250000000002 19.5, 14.28125 19.5 C6.9427920743130915 19.5, -0.39566585137381693 19.5, -14.281249999999996 19.5 C-14.685052157184735 19.487050850772302, -15.088854314369474 19.47410170154461, -15.530619289623893 19.45993515863156 C-16.01767864921302 19.41294912798658, -16.504738008802153 19.365963097341595, -16.77485465284787 19.3399052695533 C-17.07596300291728 19.291224406644208, -17.377071352986693 19.242543543735113, -18.00884325967676 19.140403561325773 C-18.315038463957265 19.07051650405919, -18.621233668237775 19.000629446792605, -19.227514386235388 18.862249829261074 C-19.468246162816392 18.790801901598712, -19.708977939397396 18.719353973936354, -20.42586025146059 18.506587066708043 C-20.678912092663484 18.4134616499598, -20.931963933866378 18.32033623321156, -21.598956595147797 18.074876768247425 C-21.859261571951944 17.959647476689014, -22.119566548756094 17.844418185130603, -22.74198291279238 17.568892924097174 C-23.0020457228342 17.433218322676538, -23.262108532876017 17.2975437212559, -23.85024226407678 16.990714730406097 C-24.155708575170603 16.80553925750172, -24.461174886264427 16.620363784597348, -24.919180573605686 16.3427180453909 C-25.14100633764423 16.187981995080168, -25.362832101682773 16.03324594476944, -25.944405344578712 15.627565626425156 C-26.20412583282369 15.420445448502242, -26.463846321068665 15.213325270579327, -26.92170370850187 14.848196188198125 C-27.19644436927196 14.598683989326272, -27.47118503004205 14.349171790454417, -27.847059736767974 14.007812326905697 C-28.184827314528725 13.65903957163386, -28.522594892289472 13.310266816362022, -28.716670942968655 13.109867360095677 C-28.949549351068722 12.83631513078453, -29.182427759168785 12.562762901473382, -29.52696390812658 12.158051136245307 C-29.746353620528716 11.864088908440412, -29.965743332930852 11.570126680635516, -30.274608964640635 11.156274872382316 C-30.431729253498755 10.91489591599115, -30.588849542356876 10.673516959599983, -30.956533878604244 10.108655082055249 C-31.14577426345721 9.772639616081916, -31.335014648310175 9.436624150108582, -31.5699364742735 9.019496659696289 C-31.73532568038932 8.67606243443468, -31.90071488650514 8.332628209173073, -32.11229614880834 7.893275190886686 C-32.21409400919117 7.64183250761336, -32.315891869573996 7.390389824340035, -32.581384229970325 6.73461856121551 C-32.675013451847 6.452622262713584, -32.76864267372368 6.170625964211659, -32.97527313421488 5.5482879393051325 C-33.064380218605024 5.208484007270842, -33.153487302995174 4.868680075236552, -33.29234428754556 4.339158212148136 C-33.37157547820785 3.9323227936153256, -33.45080666887015 3.5254873750825158, -33.531294776581774 3.112197953150904 C-33.58196044506781 2.7192450334411467, -33.63262611355384 2.326292113731389, -33.69114270250937 1.872449005199809 C-33.71356601017244 1.523187888579246, -33.73598931783552 1.173926771958683, -33.77123121591342 0.6250057626472781 C-33.77123121591342 0.32493807042458817, -33.77123121591342 0.02487037820189819, -33.77123121591342 -0.6250057626472687 C-33.74944825007422 -0.9642930384863757, -33.727665284235016 -1.3035803143254827, -33.69114270250937 -1.8724490051997822 C-33.639569730001945 -2.272438795732027, -33.587996757494516 -2.6724285862642723, -33.531294776581774 -3.112197953150895 C-33.474563200041985 -3.4035026084597573, -33.4178316235022 -3.6948072637686193, -33.29234428754556 -4.339158212148126 C-33.22266486158021 -4.604876062608244, -33.152985435614866 -4.870593913068362, -32.97527313421489 -5.548287939305123 C-32.84643986601701 -5.936313216323432, -32.717606597819135 -6.324338493341743, -32.58138422997033 -6.734618561215485 C-32.421941573083615 -7.128445006339743, -32.26249891619689 -7.522271451464, -32.11229614880834 -7.893275190886676 C-31.984523266058204 -8.158598315819065, -31.856750383308068 -8.423921440751455, -31.569936474273504 -9.019496659696282 C-31.424055980455844 -9.27852224847136, -31.27817548663818 -9.537547837246438, -30.956533878604247 -10.108655082055243 C-30.689413774495065 -10.5190232937583, -30.422293670385884 -10.929391505461357, -30.27460896464064 -11.156274872382308 C-30.08149314315928 -11.415032479954073, -29.888377321677915 -11.673790087525838, -29.526963908126586 -12.158051136245302 C-29.35762436330705 -12.356967001283397, -29.18828481848751 -12.555882866321493, -28.716670942968662 -13.10986736009567 C-28.52642310698007 -13.306313870391714, -28.336175270991472 -13.502760380687757, -27.847059736767996 -14.007812326905677 C-27.590890487832937 -14.240458460921586, -27.334721238897878 -14.473104594937494, -26.921703708501887 -14.848196188198107 C-26.545509997479527 -15.148200661803358, -26.169316286457168 -15.448205135408609, -25.94440534457872 -15.627565626425149 C-25.67072405383539 -15.818473847375566, -25.397042763092063 -16.009382068325984, -24.91918057360571 -16.342718045390885 C-24.58746196696454 -16.543807814131675, -24.255743360323365 -16.74489758287247, -23.85024226407679 -16.99071473040609 C-23.604978466589557 -17.11866869645622, -23.359714669102324 -17.24662266250635, -22.741982912792388 -17.56889292409717 C-22.31979402746054 -17.75578341984527, -21.89760514212869 -17.942673915593364, -21.598956595147804 -18.07487676824742 C-21.292445469668912 -18.187675695781437, -20.985934344190024 -18.300474623315452, -20.42586025146062 -18.506587066708033 C-20.169841656046827 -18.582572041957814, -19.913823060633035 -18.6585570172076, -19.227514386235413 -18.862249829261067 C-18.952568985069426 -18.925004322890786, -18.677623583903436 -18.987758816520504, -18.008843259676766 -19.140403561325773 C-17.65232623896715 -19.198042468403315, -17.29580921825753 -19.255681375480858, -16.774854652847882 -19.3399052695533 C-16.44794470994414 -19.371441878578494, -16.121034767040396 -19.40297848760369, -15.530619289623903 -19.45993515863156 C-15.1789137514443 -19.47121367068768, -14.827208213264697 -19.482492182743798, -14.281250000000005 -19.5 C-14.281250000000004 -19.5, -14.281250000000004 -19.5, -14.28125 -19.5" stroke="none" stroke-width="0" fill="#FF2D20" style=""/><path d="M-14.28125 -19.5 C-6.848565735597618 -19.5, 0.5841185288047637 -19.5, 14.28125 -19.5 M-14.28125 -19.5 C-3.5540528907654227 -19.5, 7.1731442184691545 -19.5, 14.28125 -19.5 M14.28125 -19.5 C14.28125 -19.5, 14.281249999999998 -19.5, 14.281249999999998 -19.5 M14.28125 -19.5 C14.28125 -19.5, 14.28125 -19.5, 14.281249999999998 -19.5 M14.281249999999998 -19.5 C14.600746519252034 -19.489754368489837, 14.92024303850407 -19.47950873697967, 15.5306192896239 -19.45993515863156 M14.281249999999998 -19.5 C14.688050617556666 -19.486954695984323, 15.094851235113333 -19.47390939196865, 15.5306192896239 -19.45993515863156 M15.5306192896239 -19.45993515863156 C16.025441094772777 -19.412200294199135, 16.52026289992165 -19.36446542976671, 16.774854652847864 -19.3399052695533 M15.5306192896239 -19.45993515863156 C15.945951537292332 -19.419868556209092, 16.361283784960765 -19.37980195378663, 16.774854652847864 -19.3399052695533 M16.774854652847864 -19.3399052695533 C17.2109790812105 -19.269396054171082, 17.647103509573135 -19.19888683878887, 18.00884325967676 -19.140403561325776 M16.774854652847864 -19.3399052695533 C17.167682764594613 -19.27639586687359, 17.56051087634136 -19.212886464193883, 18.00884325967676 -19.140403561325776 M18.00884325967676 -19.140403561325776 C18.269708433663446 -19.080862787667662, 18.530573607650137 -19.02132201400955, 19.22751438623539 -18.862249829261074 M18.00884325967676 -19.140403561325776 C18.278904036339483 -19.078763951363772, 18.54896481300221 -19.017124341401768, 19.22751438623539 -18.862249829261074 M19.22751438623539 -18.862249829261074 C19.496571200467248 -18.782395179105098, 19.765628014699104 -18.702540528949122, 20.425860251460602 -18.50658706670804 M19.22751438623539 -18.862249829261074 C19.612642000694006 -18.747945974865857, 19.99776961515262 -18.633642120470643, 20.425860251460602 -18.50658706670804 M20.425860251460602 -18.50658706670804 C20.85736623079304 -18.347788877516155, 21.288872210125483 -18.188990688324267, 21.598956595147794 -18.074876768247425 M20.425860251460602 -18.50658706670804 C20.85751251755171 -18.347735042636703, 21.289164783642818 -18.18888301856537, 21.598956595147794 -18.074876768247425 M21.598956595147794 -18.074876768247425 C21.940983204221855 -17.923471734269214, 22.283009813295916 -17.772066700291003, 22.74198291279238 -17.568892924097174 M21.598956595147794 -18.074876768247425 C21.890992364632368 -17.945601196029912, 22.18302813411694 -17.816325623812396, 22.74198291279238 -17.568892924097174 M22.74198291279238 -17.568892924097174 C22.984699366549034 -17.44226790563964, 23.227415820305684 -17.3156428871821, 23.850242264076783 -16.990714730406097 M22.74198291279238 -17.568892924097174 C23.00762029924136 -17.430310069735608, 23.27325768569034 -17.291727215374042, 23.850242264076783 -16.990714730406097 M23.850242264076783 -16.990714730406097 C24.098537936414907 -16.840196434687392, 24.346833608753027 -16.689678138968688, 24.919180573605697 -16.342718045390892 M23.850242264076783 -16.990714730406097 C24.194382984941736 -16.782094603022404, 24.53852370580669 -16.573474475638708, 24.919180573605697 -16.342718045390892 M24.919180573605697 -16.342718045390892 C25.133450009400715 -16.19325296255467, 25.347719445195732 -16.043787879718444, 25.944405344578712 -15.627565626425154 M24.919180573605697 -16.342718045390892 C25.26885734652747 -16.098798665864194, 25.618534119449237 -15.8548792863375, 25.944405344578712 -15.627565626425154 M25.944405344578712 -15.627565626425154 C26.317386219260616 -15.330123304304253, 26.69036709394252 -15.03268098218335, 26.92170370850187 -14.848196188198123 M25.944405344578712 -15.627565626425154 C26.14612518436319 -15.46669942218741, 26.347845024147666 -15.305833217949669, 26.92170370850187 -14.848196188198123 M26.92170370850187 -14.848196188198123 C27.220161504124057 -14.577144714974597, 27.51861929974624 -14.306093241751071, 27.847059736767985 -14.007812326905688 M26.92170370850187 -14.848196188198123 C27.20373389819988 -14.5920638320243, 27.48576408789789 -14.335931475850474, 27.847059736767985 -14.007812326905688 M27.847059736767985 -14.007812326905688 C28.10749218542714 -13.738894441763424, 28.3679246340863 -13.469976556621159, 28.716670942968648 -13.10986736009568 M27.847059736767985 -14.007812326905688 C28.025345280816726 -13.823717865159974, 28.203630824865467 -13.63962340341426, 28.716670942968648 -13.10986736009568 M28.716670942968648 -13.10986736009568 C28.91247175968645 -12.87986857939686, 29.108272576404254 -12.649869798698036, 29.526963908126582 -12.158051136245305 M28.716670942968648 -13.10986736009568 C28.8865855138001 -12.910276036784085, 29.056500084631548 -12.71068471347249, 29.526963908126582 -12.158051136245305 M29.526963908126582 -12.158051136245305 C29.813531676073637 -11.774076434056976, 30.100099444020696 -11.390101731868649, 30.274608964640635 -11.156274872382312 M29.526963908126582 -12.158051136245305 C29.695474410685783 -11.932262414438568, 29.863984913244987 -11.706473692631832, 30.274608964640635 -11.156274872382312 M30.274608964640635 -11.156274872382312 C30.507490202093404 -10.798506754286546, 30.740371439546173 -10.440738636190778, 30.956533878604247 -10.108655082055241 M30.274608964640635 -11.156274872382312 C30.44568548203607 -10.893455401185731, 30.616761999431503 -10.630635929989152, 30.956533878604247 -10.108655082055241 M30.956533878604247 -10.108655082055241 C31.11611452412336 -9.825303486643445, 31.27569516964247 -9.541951891231648, 31.5699364742735 -9.019496659696287 M30.956533878604247 -10.108655082055241 C31.08422820922887 -9.88192086757812, 31.21192253985349 -9.655186653101, 31.5699364742735 -9.019496659696287 M31.5699364742735 -9.019496659696287 C31.74771841826356 -8.650328649076702, 31.925500362253622 -8.281160638457116, 32.11229614880834 -7.893275190886684 M31.5699364742735 -9.019496659696287 C31.6864068880541 -8.77764335341324, 31.8028773018347 -8.53579004713019, 32.11229614880834 -7.893275190886684 M32.11229614880834 -7.893275190886684 C32.25036979918715 -7.552230604978605, 32.388443449565955 -7.211186019070525, 32.581384229970325 -6.734618561215508 M32.11229614880834 -7.893275190886684 C32.23928253220105 -7.579616368791984, 32.366268915593764 -7.265957546697284, 32.581384229970325 -6.734618561215508 M32.581384229970325 -6.734618561215508 C32.70586179663617 -6.359711963224885, 32.830339363302016 -5.984805365234262, 32.97527313421488 -5.548287939305138 M32.581384229970325 -6.734618561215508 C32.70044021603381 -6.376040900187631, 32.8194962020973 -6.0174632391597545, 32.97527313421488 -5.548287939305138 M32.97527313421488 -5.548287939305138 C33.09414386638096 -5.094982318654653, 33.21301459854705 -4.641676698004167, 33.29234428754556 -4.339158212148133 M32.97527313421488 -5.548287939305138 C33.05197522871447 -5.2557896100801775, 33.128677323214056 -4.963291280855216, 33.29234428754556 -4.339158212148133 M33.29234428754556 -4.339158212148133 C33.34228998813034 -4.082697595672855, 33.39223568871512 -3.826236979197576, 33.531294776581774 -3.1121979531509023 M33.29234428754556 -4.339158212148133 C33.36304806466675 -3.976109259879406, 33.43375184178794 -3.6130603076106786, 33.531294776581774 -3.1121979531509023 M33.531294776581774 -3.1121979531509023 C33.56687193303599 -2.836268553196194, 33.60244908949021 -2.560339153241486, 33.69114270250937 -1.872449005199798 M33.531294776581774 -3.1121979531509023 C33.57901985767734 -2.74205164855693, 33.62674493877291 -2.371905343962957, 33.69114270250937 -1.872449005199798 M33.69114270250937 -1.872449005199798 C33.708655813097025 -1.5996681714686134, 33.72616892368468 -1.3268873377374288, 33.77123121591342 -0.6250057626472757 M33.69114270250937 -1.872449005199798 C33.722423310097405 -1.3852282927641604, 33.75370391768544 -0.8980075803285229, 33.77123121591342 -0.6250057626472757 M33.77123121591342 -0.6250057626472757 C33.77123121591342 -0.2279301946251125, 33.77123121591342 0.1691453733970507, 33.77123121591342 0.625005762647271 M33.77123121591342 -0.6250057626472757 C33.77123121591342 -0.28126868561409435, 33.77123121591342 0.062468391419087, 33.77123121591342 0.625005762647271 M33.77123121591342 0.625005762647271 C33.752301932141364 0.9198446368398229, 33.73337264836931 1.2146835110323746, 33.69114270250937 1.8724490051997846 M33.77123121591342 0.625005762647271 C33.740999944569815 1.095882216066888, 33.71076867322621 1.5667586694865046, 33.69114270250937 1.8724490051997846 M33.69114270250937 1.8724490051997846 C33.63124398494962 2.337011630253508, 33.57134526738987 2.8015742553072314, 33.531294776581774 3.1121979531508885 M33.69114270250937 1.8724490051997846 C33.64447433740543 2.2343996292348907, 33.59780597230149 2.5963502532699962, 33.531294776581774 3.1121979531508885 M33.531294776581774 3.1121979531508885 C33.437951962140396 3.5914935772965593, 33.34460914769902 4.07078920144223, 33.29234428754556 4.339158212148129 M33.531294776581774 3.1121979531508885 C33.48339707372022 3.358142534161905, 33.43549937085866 3.6040871151729217, 33.29234428754556 4.339158212148129 M33.29234428754556 4.339158212148129 C33.1866189999256 4.742334555472546, 33.080893712305645 5.145510898796964, 32.97527313421489 5.548287939305125 M33.29234428754556 4.339158212148129 C33.20870484656845 4.658111650156872, 33.12506540559134 4.977065088165615, 32.97527313421489 5.548287939305125 M32.97527313421489 5.548287939305125 C32.869724770097186 5.86618279517958, 32.76417640597949 6.184077651054036, 32.581384229970325 6.734618561215495 M32.97527313421489 5.548287939305125 C32.89608461435561 5.7867911441440425, 32.816896094496336 6.0252943489829605, 32.581384229970325 6.734618561215495 M32.581384229970325 6.734618561215495 C32.46535953430406 7.0212018026960425, 32.34933483863781 7.3077850441765895, 32.11229614880834 7.893275190886679 M32.581384229970325 6.734618561215495 C32.40882934948203 7.160832452143237, 32.23627446899374 7.587046343070979, 32.11229614880834 7.893275190886679 M32.11229614880834 7.893275190886679 C31.899286108917767 8.335595096404187, 31.68627606902719 8.777915001921697, 31.569936474273504 9.019496659696284 M32.11229614880834 7.893275190886679 C31.9577434627283 8.214207150429615, 31.803190776648258 8.535139109972553, 31.569936474273504 9.019496659696284 M31.569936474273504 9.019496659696284 C31.399524633312655 9.322080139392352, 31.229112792351806 9.62466361908842, 30.95653387860425 10.108655082055236 M31.569936474273504 9.019496659696284 C31.362822176305407 9.387249068335496, 31.155707878337314 9.75500147697471, 30.95653387860425 10.108655082055236 M30.95653387860425 10.108655082055236 C30.799810145708395 10.349424821998179, 30.643086412812536 10.590194561941123, 30.27460896464064 11.156274872382301 M30.95653387860425 10.108655082055236 C30.790616361548626 10.363548943344306, 30.624698844493 10.618442804633375, 30.27460896464064 11.156274872382301 M30.27460896464064 11.156274872382301 C30.03062673615193 11.483188831318904, 29.78664450766322 11.810102790255506, 29.526963908126582 12.158051136245302 M30.27460896464064 11.156274872382301 C30.097329080952665 11.393813765994539, 29.92004919726469 11.631352659606778, 29.526963908126582 12.158051136245302 M29.526963908126582 12.158051136245302 C29.22849285500325 12.508652218728011, 28.930021801879917 12.859253301210721, 28.71667094296866 13.10986736009567 M29.526963908126582 12.158051136245302 C29.23570775884409 12.500177182136904, 28.944451609561593 12.842303228028507, 28.71667094296866 13.10986736009567 M28.71667094296866 13.10986736009567 C28.39369483479752 13.443366708613997, 28.07071872662638 13.776866057132324, 27.84705973676799 14.007812326905684 M28.71667094296866 13.10986736009567 C28.374880885026247 13.46279365640684, 28.03309082708384 13.815719952718007, 27.84705973676799 14.007812326905684 M27.84705973676799 14.007812326905684 C27.557077279267183 14.27116672229253, 27.267094821766378 14.534521117679379, 26.921703708501887 14.848196188198111 M27.84705973676799 14.007812326905684 C27.51291265917205 14.311275861731119, 27.178765581576112 14.614739396556551, 26.921703708501887 14.848196188198111 M26.921703708501887 14.848196188198111 C26.657165603253326 15.05915828747921, 26.392627498004767 15.27012038676031, 25.944405344578715 15.627565626425152 M26.921703708501887 14.848196188198111 C26.622256595217074 15.086997292420405, 26.32280948193226 15.325798396642698, 25.944405344578715 15.627565626425152 M25.944405344578715 15.627565626425152 C25.712213857351145 15.789532356507623, 25.480022370123578 15.951499086590093, 24.919180573605708 16.34271804539089 M25.944405344578715 15.627565626425152 C25.70012238423154 15.797966844724424, 25.455839423884367 15.968368063023698, 24.919180573605708 16.34271804539089 M24.919180573605708 16.34271804539089 C24.59193061536874 16.54109889320836, 24.26468065713177 16.73947974102583, 23.850242264076787 16.990714730406093 M24.919180573605708 16.34271804539089 C24.639657053442793 16.512166845976186, 24.36013353327988 16.681615646561482, 23.850242264076787 16.990714730406093 M23.850242264076787 16.990714730406093 C23.55528798513241 17.144592188804143, 23.26033370618803 17.298469647202193, 22.741982912792388 17.56889292409717 M23.850242264076787 16.990714730406093 C23.508367854235285 17.169070391039394, 23.166493444393787 17.347426051672695, 22.741982912792388 17.56889292409717 M22.741982912792388 17.56889292409717 C22.327026996386845 17.752581599059994, 21.9120710799813 17.936270274022814, 21.598956595147804 18.07487676824742 M22.741982912792388 17.56889292409717 C22.361613834281115 17.73727103190629, 21.981244755769847 17.90564913971541, 21.598956595147804 18.07487676824742 M21.598956595147804 18.07487676824742 C21.150082239471562 18.240066680485338, 20.701207883795316 18.40525659272325, 20.425860251460616 18.506587066708033 M21.598956595147804 18.07487676824742 C21.268457149796603 18.196503619240044, 20.937957704445406 18.318130470232667, 20.425860251460616 18.506587066708033 M20.425860251460616 18.506587066708033 C20.07932552722288 18.609436753863907, 19.732790802985143 18.71228644101978, 19.227514386235413 18.86224982926107 M20.425860251460616 18.506587066708033 C20.063106349530276 18.61425052066687, 19.70035244759994 18.72191397462571, 19.227514386235413 18.86224982926107 M19.227514386235413 18.86224982926107 C18.86485536071289 18.945024385265278, 18.502196335190366 19.027798941269484, 18.008843259676766 19.140403561325773 M19.227514386235413 18.86224982926107 C18.804258119904212 18.958855310045905, 18.38100185357301 19.055460790830743, 18.008843259676766 19.140403561325773 M18.008843259676766 19.140403561325773 C17.732339353484925 19.185106568559053, 17.455835447293083 19.22980957579233, 16.77485465284788 19.3399052695533 M18.008843259676766 19.140403561325773 C17.63796118400761 19.20036489908651, 17.267079108338457 19.260326236847245, 16.77485465284788 19.3399052695533 M16.77485465284788 19.3399052695533 C16.307998136338565 19.384942356223846, 15.841141619829255 19.42997944289439, 15.5306192896239 19.45993515863156 M16.77485465284788 19.3399052695533 C16.38049234844252 19.37794892676922, 15.98613004403716 19.415992583985144, 15.5306192896239 19.45993515863156 M15.5306192896239 19.45993515863156 C15.272543881063445 19.468211134670785, 15.01446847250299 19.476487110710007, 14.281250000000004 19.5 M15.5306192896239 19.45993515863156 C15.09953476377893 19.47375920032028, 14.668450237933959 19.487583242009002, 14.281250000000004 19.5 M14.281250000000004 19.5 C14.281250000000004 19.5, 14.281250000000002 19.5, 14.28125 19.5 M14.281250000000004 19.5 C14.281250000000004 19.5, 14.281250000000002 19.5, 14.28125 19.5 M14.28125 19.5 C4.4331394699343 19.5, -5.4149710601314 19.5, -14.281249999999996 19.5 M14.28125 19.5 C4.3241203343252135 19.5, -5.633009331349573 19.5, -14.281249999999996 19.5 M-14.281249999999996 19.5 C-14.552130104024073 19.491313402300086, -14.82301020804815 19.48262680460017, -15.530619289623893 19.45993515863156 M-14.281249999999996 19.5 C-14.537943561435648 19.491768337108464, -14.7946371228713 19.483536674216932, -15.530619289623893 19.45993515863156 M-15.530619289623893 19.45993515863156 C-15.896441572387864 19.424644722978982, -16.262263855151836 19.389354287326405, -16.77485465284787 19.3399052695533 M-15.530619289623893 19.45993515863156 C-15.904143863797685 19.42390169219004, -16.277668437971478 19.387868225748516, -16.77485465284787 19.3399052695533 M-16.77485465284787 19.3399052695533 C-17.266826740883694 19.260367037660192, -17.758798828919513 19.18082880576708, -18.00884325967676 19.140403561325773 M-16.77485465284787 19.3399052695533 C-17.040901557102107 19.29689286929803, -17.306948461356345 19.253880469042763, -18.00884325967676 19.140403561325773 M-18.00884325967676 19.140403561325773 C-18.36238700858614 19.059709507725778, -18.715930757495524 18.979015454125783, -19.227514386235388 18.862249829261074 M-18.00884325967676 19.140403561325773 C-18.386953265110304 19.05410241998394, -18.765063270543845 18.967801278642114, -19.227514386235388 18.862249829261074 M-19.227514386235388 18.862249829261074 C-19.530606467746356 18.77229369043142, -19.83369854925732 18.68233755160177, -20.42586025146059 18.506587066708043 M-19.227514386235388 18.862249829261074 C-19.62917050386263 18.743040401885295, -20.030826621489872 18.623830974509513, -20.42586025146059 18.506587066708043 M-20.42586025146059 18.506587066708043 C-20.877930985680646 18.340220857619006, -21.3300017199007 18.173854648529968, -21.598956595147797 18.074876768247425 M-20.42586025146059 18.506587066708043 C-20.793629915616215 18.371244430673265, -21.161399579771835 18.23590179463849, -21.598956595147797 18.074876768247425 M-21.598956595147797 18.074876768247425 C-21.92504522319283 17.930527005687356, -22.251133851237864 17.786177243127284, -22.74198291279238 17.568892924097174 M-21.598956595147797 18.074876768247425 C-22.022903950368633 17.88720785004263, -22.44685130558947 17.699538931837832, -22.74198291279238 17.568892924097174 M-22.74198291279238 17.568892924097174 C-23.137501998675273 17.362550870334132, -23.533021084558168 17.156208816571095, -23.85024226407678 16.990714730406097 M-22.74198291279238 17.568892924097174 C-23.11430401485476 17.374653243634278, -23.48662511691714 17.180413563171385, -23.85024226407678 16.990714730406097 M-23.85024226407678 16.990714730406097 C-24.113582269605214 16.83107647149711, -24.37692227513365 16.671438212588125, -24.919180573605686 16.3427180453909 M-23.85024226407678 16.990714730406097 C-24.209167880073924 16.77313191270758, -24.568093496071068 16.555549095009066, -24.919180573605686 16.3427180453909 M-24.919180573605686 16.3427180453909 C-25.24093488583318 16.11827616570069, -25.56268919806067 15.893834286010481, -25.944405344578712 15.627565626425156 M-24.919180573605686 16.3427180453909 C-25.193166667143597 16.151597207205683, -25.467152760681508 15.960476369020466, -25.944405344578712 15.627565626425156 M-25.944405344578712 15.627565626425156 C-26.230288826242912 15.399581157476906, -26.516172307907112 15.171596688528656, -26.92170370850187 14.848196188198125 M-25.944405344578712 15.627565626425156 C-26.159650691980502 15.455913189791481, -26.374896039382293 15.284260753157804, -26.92170370850187 14.848196188198125 M-26.92170370850187 14.848196188198125 C-27.15560989723569 14.635768776408685, -27.38951608596951 14.423341364619247, -27.847059736767974 14.007812326905697 M-26.92170370850187 14.848196188198125 C-27.202725310816703 14.59297980439994, -27.48374691313154 14.337763420601755, -27.847059736767974 14.007812326905697 M-27.847059736767974 14.007812326905697 C-28.10509376057903 13.74137101233344, -28.363127784390088 13.474929697761182, -28.716670942968655 13.109867360095677 M-27.847059736767974 14.007812326905697 C-28.182523796307915 13.661418143319208, -28.517987855847856 13.31502395973272, -28.716670942968655 13.109867360095677 M-28.716670942968655 13.109867360095677 C-28.993925185140657 12.784188751027143, -29.27117942731266 12.458510141958609, -29.52696390812658 12.158051136245307 M-28.716670942968655 13.109867360095677 C-28.9141134802213 12.877940121040085, -29.11155601747394 12.646012881984491, -29.52696390812658 12.158051136245307 M-29.52696390812658 12.158051136245307 C-29.791535747556132 11.80354897440012, -30.05610758698569 11.449046812554936, -30.274608964640635 11.156274872382316 M-29.52696390812658 12.158051136245307 C-29.805103310342616 11.78536967629663, -30.083242712558654 11.412688216347956, -30.274608964640635 11.156274872382316 M-30.274608964640635 11.156274872382316 C-30.43908915201302 10.903589135463765, -30.603569339385402 10.650903398545216, -30.956533878604244 10.108655082055249 M-30.274608964640635 11.156274872382316 C-30.512789365996735 10.790365815506284, -30.750969767352835 10.424456758630251, -30.956533878604244 10.108655082055249 M-30.956533878604244 10.108655082055249 C-31.13250804887478 9.796195123422912, -31.308482219145315 9.483735164790577, -31.5699364742735 9.019496659696289 M-30.956533878604244 10.108655082055249 C-31.127419331623702 9.805230656190698, -31.29830478464316 9.501806230326148, -31.5699364742735 9.019496659696289 M-31.5699364742735 9.019496659696289 C-31.771182198796907 8.601605606754735, -31.972427923320314 8.183714553813179, -32.11229614880834 7.893275190886686 M-31.5699364742735 9.019496659696289 C-31.71243105763557 8.723603608449288, -31.854925640997642 8.427710557202289, -32.11229614880834 7.893275190886686 M-32.11229614880834 7.893275190886686 C-32.26745990201984 7.510017720567197, -32.42262365523134 7.126760250247709, -32.581384229970325 6.73461856121551 M-32.11229614880834 7.893275190886686 C-32.24994784269713 7.553272845666917, -32.387599536585924 7.213270500447147, -32.581384229970325 6.73461856121551 M-32.581384229970325 6.73461856121551 C-32.67131422271194 6.4637637514762725, -32.76124421545356 6.192908941737035, -32.97527313421488 5.5482879393051325 M-32.581384229970325 6.73461856121551 C-32.6665124654371 6.478225879331968, -32.75164070090387 6.2218331974484276, -32.97527313421488 5.5482879393051325 M-32.97527313421488 5.5482879393051325 C-33.09099040103604 5.107007848735382, -33.206707667857195 4.665727758165631, -33.29234428754556 4.339158212148136 M-32.97527313421488 5.5482879393051325 C-33.091342427440395 5.10566541948636, -33.20741172066591 4.663042899667588, -33.29234428754556 4.339158212148136 M-33.29234428754556 4.339158212148136 C-33.36832436166188 3.949016589955195, -33.44430443577819 3.5588749677622538, -33.531294776581774 3.112197953150904 M-33.29234428754556 4.339158212148136 C-33.344158560878384 4.073102869534614, -33.395972834211214 3.8070475269210924, -33.531294776581774 3.112197953150904 M-33.531294776581774 3.112197953150904 C-33.584263268865946 2.7013847868067797, -33.63723176115011 2.290571620462655, -33.69114270250937 1.872449005199809 M-33.531294776581774 3.112197953150904 C-33.58240604530777 2.715789045973698, -33.63351731403377 2.3193801387964923, -33.69114270250937 1.872449005199809 M-33.69114270250937 1.872449005199809 C-33.71563654658597 1.4909376126316416, -33.74013039066257 1.1094262200634741, -33.77123121591342 0.6250057626472781 M-33.69114270250937 1.872449005199809 C-33.71242781748099 1.540916158481219, -33.73371293245261 1.209383311762629, -33.77123121591342 0.6250057626472781 M-33.77123121591342 0.6250057626472781 C-33.77123121591342 0.3318771328880936, -33.77123121591342 0.038748503128909095, -33.77123121591342 -0.6250057626472687 M-33.77123121591342 0.6250057626472781 C-33.77123121591342 0.13144247867308861, -33.77123121591342 -0.3621208053011009, -33.77123121591342 -0.6250057626472687 M-33.77123121591342 -0.6250057626472687 C-33.74350655638868 -1.056839713687361, -33.71578189686395 -1.4886736647274534, -33.69114270250937 -1.8724490051997822 M-33.77123121591342 -0.6250057626472687 C-33.73985858347614 -1.1136598363909693, -33.70848595103886 -1.60231391013467, -33.69114270250937 -1.8724490051997822 M-33.69114270250937 -1.8724490051997822 C-33.65469610800055 -2.1551215950160265, -33.61824951349173 -2.437794184832271, -33.531294776581774 -3.112197953150895 M-33.69114270250937 -1.8724490051997822 C-33.65558855513201 -2.1481999512980043, -33.62003440775466 -2.4239508973962267, -33.531294776581774 -3.112197953150895 M-33.531294776581774 -3.112197953150895 C-33.47702837624873 -3.390844449653285, -33.4227619759157 -3.6694909461556744, -33.29234428754556 -4.339158212148126 M-33.531294776581774 -3.112197953150895 C-33.438531476547446 -3.588517893296779, -33.34576817651311 -4.064837833442663, -33.29234428754556 -4.339158212148126 M-33.29234428754556 -4.339158212148126 C-33.1794526297816 -4.769663030756077, -33.06656097201765 -5.2001678493640275, -32.97527313421489 -5.548287939305123 M-33.29234428754556 -4.339158212148126 C-33.20442409014584 -4.67443602968784, -33.11650389274613 -5.0097138472275535, -32.97527313421489 -5.548287939305123 M-32.97527313421489 -5.548287939305123 C-32.87825279694988 -5.840497737055823, -32.78123245968488 -6.132707534806523, -32.58138422997033 -6.734618561215485 M-32.97527313421489 -5.548287939305123 C-32.83108860249806 -5.98254877615082, -32.68690407078124 -6.416809612996516, -32.58138422997033 -6.734618561215485 M-32.58138422997033 -6.734618561215485 C-32.408975043264206 -7.160472585684473, -32.23656585655808 -7.586326610153462, -32.11229614880834 -7.893275190886676 M-32.58138422997033 -6.734618561215485 C-32.45041678094603 -7.058110692388888, -32.319449331921724 -7.3816028235622895, -32.11229614880834 -7.893275190886676 M-32.11229614880834 -7.893275190886676 C-31.951400865742446 -8.227377688780571, -31.790505582676552 -8.561480186674467, -31.569936474273504 -9.019496659696282 M-32.11229614880834 -7.893275190886676 C-31.925966055593737 -8.280193616272124, -31.73963596237913 -8.667112041657573, -31.569936474273504 -9.019496659696282 M-31.569936474273504 -9.019496659696282 C-31.429558293674496 -9.26875233418201, -31.28918011307549 -9.518008008667737, -30.956533878604247 -10.108655082055243 M-31.569936474273504 -9.019496659696282 C-31.365459006688564 -9.382567108982176, -31.16098153910362 -9.745637558268069, -30.956533878604247 -10.108655082055243 M-30.956533878604247 -10.108655082055243 C-30.693011260419524 -10.513496589318098, -30.4294886422348 -10.918338096580955, -30.27460896464064 -11.156274872382308 M-30.956533878604247 -10.108655082055243 C-30.80097770911189 -10.347631131075737, -30.645421539619537 -10.586607180096232, -30.27460896464064 -11.156274872382308 M-30.27460896464064 -11.156274872382308 C-30.001482532857036 -11.522239408642527, -29.72835610107343 -11.888203944902745, -29.526963908126586 -12.158051136245302 M-30.27460896464064 -11.156274872382308 C-30.116998072009512 -11.367459109860317, -29.959387179378385 -11.578643347338327, -29.526963908126586 -12.158051136245302 M-29.526963908126586 -12.158051136245302 C-29.245513170288422 -12.488659187910676, -28.96406243245026 -12.81926723957605, -28.716670942968662 -13.10986736009567 M-29.526963908126586 -12.158051136245302 C-29.205729820505038 -12.53539097430297, -28.88449573288349 -12.912730812360639, -28.716670942968662 -13.10986736009567 M-28.716670942968662 -13.10986736009567 C-28.4738983262967 -13.360550018811985, -28.231125709624738 -13.6112326775283, -27.847059736767996 -14.007812326905677 M-28.716670942968662 -13.10986736009567 C-28.435538798357022 -13.400159380785514, -28.154406653745387 -13.690451401475356, -27.847059736767996 -14.007812326905677 M-27.847059736767996 -14.007812326905677 C-27.655839067699983 -14.181473879131591, -27.464618398631966 -14.355135431357507, -26.921703708501887 -14.848196188198107 M-27.847059736767996 -14.007812326905677 C-27.63646910474032 -14.19906516699042, -27.425878472712643 -14.390318007075164, -26.921703708501887 -14.848196188198107 M-26.921703708501887 -14.848196188198107 C-26.56032298472294 -15.13638769866688, -26.198942260943998 -15.424579209135652, -25.94440534457872 -15.627565626425149 M-26.921703708501887 -14.848196188198107 C-26.668991766397482 -15.04972723707916, -26.41627982429308 -15.251258285960214, -25.94440534457872 -15.627565626425149 M-25.94440534457872 -15.627565626425149 C-25.67643282578173 -15.814491655194555, -25.40846030698474 -16.00141768396396, -24.91918057360571 -16.342718045390885 M-25.94440534457872 -15.627565626425149 C-25.729787953085715 -15.77727342809353, -25.51517056159271 -15.92698122976191, -24.91918057360571 -16.342718045390885 M-24.91918057360571 -16.342718045390885 C-24.632833255520552 -16.516303472377732, -24.346485937435396 -16.68988889936458, -23.85024226407679 -16.99071473040609 M-24.91918057360571 -16.342718045390885 C-24.615244332460847 -16.52696598090051, -24.311308091315986 -16.711213916410138, -23.85024226407679 -16.99071473040609 M-23.85024226407679 -16.99071473040609 C-23.61683655645137 -17.11248233857078, -23.383430848825956 -17.23424994673547, -22.741982912792388 -17.56889292409717 M-23.85024226407679 -16.99071473040609 C-23.5739108547073 -17.134876649675437, -23.297579445337814 -17.279038568944785, -22.741982912792388 -17.56889292409717 M-22.741982912792388 -17.56889292409717 C-22.454747567350285 -17.6960434909906, -22.167512221908183 -17.82319405788403, -21.598956595147804 -18.07487676824742 M-22.741982912792388 -17.56889292409717 C-22.485730352468835 -17.682328331090286, -22.229477792145286 -17.795763738083398, -21.598956595147804 -18.07487676824742 M-21.598956595147804 -18.07487676824742 C-21.242887769343167 -18.205913387607673, -20.886818943538525 -18.336950006967925, -20.42586025146062 -18.506587066708033 M-21.598956595147804 -18.07487676824742 C-21.217022909059548 -18.21543189528419, -20.83508922297129 -18.35598702232096, -20.42586025146062 -18.506587066708033 M-20.42586025146062 -18.506587066708033 C-20.10987568468456 -18.60036962749033, -19.7938911179085 -18.694152188272625, -19.227514386235413 -18.862249829261067 M-20.42586025146062 -18.506587066708033 C-20.013900621426945 -18.628854522481802, -19.60194099139327 -18.751121978255572, -19.227514386235413 -18.862249829261067 M-19.227514386235413 -18.862249829261067 C-18.909166835200143 -18.934910580372954, -18.590819284164873 -19.00757133148484, -18.008843259676766 -19.140403561325773 M-19.227514386235413 -18.862249829261067 C-18.932386345380376 -18.92961087869578, -18.637258304525336 -18.996971928130492, -18.008843259676766 -19.140403561325773 M-18.008843259676766 -19.140403561325773 C-17.627594010973244 -19.202040983224077, -17.246344762269725 -19.26367840512238, -16.774854652847882 -19.3399052695533 M-18.008843259676766 -19.140403561325773 C-17.52101885227236 -19.219271228380137, -17.033194444867952 -19.2981388954345, -16.774854652847882 -19.3399052695533 M-16.774854652847882 -19.3399052695533 C-16.379430150932503 -19.378051395685535, -15.984005649017123 -19.416197521817768, -15.530619289623903 -19.45993515863156 M-16.774854652847882 -19.3399052695533 C-16.46991676790901 -19.369322260571888, -16.164978882970136 -19.39873925159048, -15.530619289623903 -19.45993515863156 M-15.530619289623903 -19.45993515863156 C-15.261233244644409 -19.468573844765924, -14.991847199664914 -19.47721253090029, -14.281250000000005 -19.5 M-15.530619289623903 -19.45993515863156 C-15.165779876507711 -19.47163484849336, -14.800940463391518 -19.483334538355155, -14.281250000000005 -19.5 M-14.281250000000005 -19.5 C-14.281250000000004 -19.5, -14.281250000000002 -19.5, -14.28125 -19.5 M-14.281250000000005 -19.5 C-14.281250000000004 -19.5, -14.281250000000002 -19.5, -14.28125 -19.5" stroke="#BC002D" stroke-width="1.3" fill="none" stroke-dasharray="0 0" style=""/></g><g class="label" style="" transform="translate(-21.40625, -12)"><rect/><foreignObject width="42.8125" height="24"><div xmlns="http://www.w3.org/1999/xhtml" style="display: table-cell; white-space: nowrap; line-height: 1.5; max-width: 200px; text-align: center;"><span class="nodeLabel"><p>START</p></span></div></foreignObject></g></g><g class="node default q" id="my-svg-flowchart-Q1-1" data-look="classic" transform="translate(214.68309020996094, 135)"><polygon points="89.140625,0 178.28125,-89.140625 89.140625,-178.28125 0,-89.140625" class="label-container" transform="translate(-88.640625, 89.140625)" style="fill:#fff !important;stroke:#1A202C !important;stroke-width:2px !important"/><g class="label" style="color:#1A202C !important" transform="translate(-50.140625, -24)"><rect/><foreignObject width="100.28125" height="48"><div style="color: rgb(26, 32, 44) !important; display: table-cell; white-space: nowrap; line-height: 1.5; max-width: 200px; text-align: center;" xmlns="http://www.w3.org/1999/xhtml"><span style="color:#1A202C !important" class="nodeLabel"><p>Laravel 等<br />フルスタック?</p></span></div></foreignObject></g></g><g class="node default b" id="my-svg-flowchart-B-3" data-look="classic" transform="translate(463.47996520996094, 47)"><rect class="basic label-container" style="fill:#FF2D20 !important;stroke:#BC002D !important" x="-79.4140625" y="-39" width="158.828125" height="78"/><g class="label" style="color:#fff !important" transform="translate(-49.4140625, -24)"><rect/><foreignObject width="98.828125" height="48"><div style="color: rgb(255, 255, 255) !important; display: table-cell; white-space: nowrap; line-height: 1.5; max-width: 200px; text-align: center;" xmlns="http://www.w3.org/1999/xhtml"><span style="color:#fff !important" class="nodeLabel"><p>B: Containers<br />+ FrankenPHP</p></span></div></foreignObject></g></g><g class="node default q" id="my-svg-flowchart-Q2-5" data-look="classic" transform="translate(463.47996520996094, 223)"><polygon points="87,0 174,-87 87,-174 0,-87" class="label-container" transform="translate(-86.5, 87)" style="fill:#fff !important;stroke:#1A202C !important;stroke-width:2px !important"/><g class="label" style="color:#1A202C !important" transform="translate(-48, -24)"><rect/><foreignObject width="96" height="48"><div style="color: rgb(26, 32, 44) !important; display: table-cell; white-space: nowrap; line-height: 1.5; max-width: 200px; text-align: center;" xmlns="http://www.w3.org/1999/xhtml"><span style="color:#1A202C !important" class="nodeLabel"><p>既存オリジン<br />あり?</p></span></div></foreignObject></g></g><g class="node default c" id="my-svg-flowchart-C-7" data-look="classic" transform="translate(710.9565277099609, 171)"><rect class="basic label-container" style="fill:#1A202C !important;stroke:#1A202C !important" x="-87.8203125" y="-27" width="175.640625" height="54"/><g class="label" style="color:#fff !important" transform="translate(-57.8203125, -12)"><rect/><foreignObject width="115.640625" height="24"><div style="color: rgb(255, 255, 255) !important; display: table-cell; white-space: nowrap; line-height: 1.5; max-width: 200px; text-align: center;" xmlns="http://www.w3.org/1999/xhtml"><span style="color:#fff !important" class="nodeLabel"><p>C: ハイブリッド</p></span></div></foreignObject></g></g><g class="node default a" id="my-svg-flowchart-A-9" data-look="classic" transform="translate(710.9565277099609, 275)"><rect class="basic label-container" style="fill:#BC002D !important;stroke:#BC002D !important" x="-76.328125" y="-27" width="152.65625" height="54"/><g class="label" style="color:#fff !important" transform="translate(-46.328125, -12)"><rect/><foreignObject width="92.65625" height="24"><div style="color: rgb(255, 255, 255) !important; display: table-cell; white-space: nowrap; line-height: 1.5; max-width: 200px; text-align: center;" xmlns="http://www.w3.org/1999/xhtml"><span style="color:#fff !important" class="nodeLabel"><p>A: php-wasm</p></span></div></foreignObject></g></g></g></g></g><defs><filter id="my-svg-drop-shadow" height="130%" width="130%"><feDropShadow dx="4" dy="4" stdDeviation="0" flood-opacity="0.06" flood-color="#000000"/></filter></defs><defs><filter id="my-svg-drop-shadow-small" height="150%" width="150%"><feDropShadow dx="2" dy="2" stdDeviation="0" flood-opacity="0.06" flood-color="#000000"/></filter></defs><linearGradient id="my-svg-gradient" gradientUnits="objectBoundingBox" x1="0%" y1="0%" x2="100%" y2="0%"><stop offset="0%" stop-color="#BC002D" stop-opacity="1"/><stop offset="100%" stop-color="hsl(220, 0%, 3.7254901961%)" stop-opacity="1"/></linearGradient></svg>