<svg id="my-svg" width="100%" xmlns="http://www.w3.org/2000/svg" xmlns:xlink="http://www.w3.org/1999/xlink" class="flowchart" style="max-width: 806.777px; background-color: transparent;" viewBox="0 0 806.77685546875 318" role="graphics-document document" aria-roledescription="flowchart-v2"><style>#my-svg{font-family:"trebuchet ms",verdana,arial,sans-serif;font-size:16px;fill:#333;}@keyframes edge-animation-frame{from{stroke-dashoffset:0;}}@keyframes dash{to{stroke-dashoffset:0;}}#my-svg .edge-animation-slow{stroke-dasharray:9,5!important;stroke-dashoffset:900;animation:dash 50s linear infinite;stroke-linecap:round;}#my-svg .edge-animation-fast{stroke-dasharray:9,5!important;stroke-dashoffset:900;animation:dash 20s linear infinite;stroke-linecap:round;}#my-svg .error-icon{fill:#552222;}#my-svg .error-text{fill:#552222;stroke:#552222;}#my-svg .edge-thickness-normal{stroke-width:1px;}#my-svg .edge-thickness-thick{stroke-width:3.5px;}#my-svg .edge-pattern-solid{stroke-dasharray:0;}#my-svg .edge-thickness-invisible{stroke-width:0;fill:none;}#my-svg .edge-pattern-dashed{stroke-dasharray:3;}#my-svg .edge-pattern-dotted{stroke-dasharray:2;}#my-svg .marker{fill:#333333;stroke:#333333;}#my-svg .marker.cross{stroke:#333333;}#my-svg svg{font-family:"trebuchet ms",verdana,arial,sans-serif;font-size:16px;}#my-svg p{margin:0;}#my-svg .label{font-family:"trebuchet ms",verdana,arial,sans-serif;color:#333;}#my-svg .cluster-label text{fill:#333;}#my-svg .cluster-label span{color:#333;}#my-svg .cluster-label span p{background-color:transparent;}#my-svg .label text,#my-svg span{fill:#333;color:#333;}#my-svg .node rect,#my-svg .node circle,#my-svg .node ellipse,#my-svg .node polygon,#my-svg .node path{fill:#ECECFF;stroke:#9370DB;stroke-width:1px;}#my-svg .rough-node .label text,#my-svg .node .label text,#my-svg .image-shape .label,#my-svg .icon-shape .label{text-anchor:middle;}#my-svg .node .katex path{fill:#000;stroke:#000;stroke-width:1px;}#my-svg .rough-node .label,#my-svg .node .label,#my-svg .image-shape .label,#my-svg .icon-shape .label{text-align:center;}#my-svg .node.clickable{cursor:pointer;}#my-svg .root .anchor path{fill:#333333!important;stroke-width:0;stroke:#333333;}#my-svg .arrowheadPath{fill:#333333;}#my-svg .edgePath .path{stroke:#333333;stroke-width:1px;}#my-svg .flowchart-link{stroke:#333333;fill:none;}#my-svg .edgeLabel{background-color:rgba(232,232,232, 0.8);text-align:center;}#my-svg .edgeLabel p{background-color:rgba(232,232,232, 0.8);}#my-svg .edgeLabel rect{opacity:0.5;background-color:rgba(232,232,232, 0.8);fill:rgba(232,232,232, 0.8);}#my-svg .labelBkg{background-color:rgba(232, 232, 232, 0.5);}#my-svg .cluster rect{fill:#ffffde;stroke:#aaaa33;stroke-width:1px;}#my-svg .cluster text{fill:#333;}#my-svg .cluster span{color:#333;}#my-svg div.mermaidTooltip{position:absolute;text-align:center;max-width:200px;padding:2px;font-family:"trebuchet ms",verdana,arial,sans-serif;font-size:12px;background:hsl(80, 100%, 96.2745098039%);border:1px solid #aaaa33;border-radius:2px;pointer-events:none;z-index:100;}#my-svg .flowchartTitleText{text-anchor:middle;font-size:18px;fill:#333;}#my-svg rect.text{fill:none;stroke-width:0;}#my-svg .icon-shape,#my-svg .image-shape{background-color:rgba(232,232,232, 0.8);text-align:center;}#my-svg .icon-shape p,#my-svg .image-shape p{background-color:rgba(232,232,232, 0.8);padding:2px;}#my-svg .icon-shape .label rect,#my-svg .image-shape .label rect{opacity:0.5;background-color:rgba(232,232,232, 0.8);fill:rgba(232,232,232, 0.8);}#my-svg .label-icon{display:inline-block;height:1em;overflow:visible;vertical-align:-0.125em;}#my-svg .node .label-icon path{fill:currentColor;stroke:revert;stroke-width:revert;}#my-svg .node .neo-node{stroke:#9370DB;}#my-svg [data-look="neo"].node rect,#my-svg [data-look="neo"].cluster rect,#my-svg [data-look="neo"].node polygon{stroke:#9370DB;filter:drop-shadow(1px 2px 2px rgba(185, 185, 185, 1));}#my-svg [data-look="neo"].node path{stroke:#9370DB;stroke-width:1px;}#my-svg [data-look="neo"].node .outer-path{filter:drop-shadow(1px 2px 2px rgba(185, 185, 185, 1));}#my-svg [data-look="neo"].node .neo-line path{stroke:#9370DB;filter:none;}#my-svg [data-look="neo"].node circle{stroke:#9370DB;filter:drop-shadow(1px 2px 2px rgba(185, 185, 185, 1));}#my-svg [data-look="neo"].node circle .state-start{fill:#000000;}#my-svg [data-look="neo"].icon-shape .icon{fill:#9370DB;filter:drop-shadow(1px 2px 2px rgba(185, 185, 185, 1));}#my-svg [data-look="neo"].icon-shape .icon-neo path{stroke:#9370DB;filter:drop-shadow(1px 2px 2px rgba(185, 185, 185, 1));}#my-svg :root{--mermaid-font-family:"trebuchet ms",verdana,arial,sans-serif;}#my-svg .q&gt;*{fill:#fff!important;stroke:#1A202C!important;stroke-width:2px!important;color:#1A202C!important;}#my-svg .q span{fill:#fff!important;stroke:#1A202C!important;stroke-width:2px!important;color:#1A202C!important;}#my-svg .q tspan{fill:#1A202C!important;}#my-svg .a&gt;*{fill:#BC002D!important;stroke:#BC002D!important;color:#fff!important;}#my-svg .a span{fill:#BC002D!important;stroke:#BC002D!important;color:#fff!important;}#my-svg .a tspan{fill:#fff!important;}#my-svg .b&gt;*{fill:#FF2D20!important;stroke:#BC002D!important;color:#fff!important;}#my-svg .b span{fill:#FF2D20!important;stroke:#BC002D!important;color:#fff!important;}#my-svg .b tspan{fill:#fff!important;}#my-svg .c&gt;*{fill:#1A202C!important;stroke:#1A202C!important;color:#fff!important;}#my-svg .c span{fill:#1A202C!important;stroke:#1A202C!important;color:#fff!important;}#my-svg .c tspan{fill:#fff!important;}</style><g><marker id="my-svg_flowchart-v2-pointEnd" class="marker flowchart-v2" viewBox="0 0 10 10" refX="5" refY="5" markerUnits="userSpaceOnUse" markerWidth="8" markerHeight="8" orient="auto"><path d="M 0 0 L 10 5 L 0 10 z" class="arrowMarkerPath" style="stroke-width: 1; stroke-dasharray: 1, 0;"/></marker><marker id="my-svg_flowchart-v2-pointStart" class="marker flowchart-v2" viewBox="0 0 10 10" refX="4.5" refY="5" markerUnits="userSpaceOnUse" markerWidth="8" markerHeight="8" orient="auto"><path d="M 0 5 L 10 10 L 10 0 z" class="arrowMarkerPath" style="stroke-width: 1; stroke-dasharray: 1, 0;"/></marker><marker id="my-svg_flowchart-v2-pointEnd-margin" class="marker flowchart-v2" viewBox="0 0 11.5 14" refX="11.5" refY="7" markerUnits="userSpaceOnUse" markerWidth="10.5" markerHeight="14" orient="auto"><path d="M 0 0 L 11.5 7 L 0 14 z" class="arrowMarkerPath" style="stroke-width: 0; stroke-dasharray: 1, 0;"/></marker><marker id="my-svg_flowchart-v2-pointStart-margin" class="marker flowchart-v2" viewBox="0 0 11.5 14" refX="1" refY="7" markerUnits="userSpaceOnUse" markerWidth="11.5" markerHeight="14" orient="auto"><polygon points="0,7 11.5,14 11.5,0" class="arrowMarkerPath" style="stroke-width: 0; stroke-dasharray: 1, 0;"/></marker><marker id="my-svg_flowchart-v2-circleEnd" class="marker flowchart-v2" viewBox="0 0 10 10" refX="11" refY="5" markerUnits="userSpaceOnUse" markerWidth="11" markerHeight="11" orient="auto"><circle cx="5" cy="5" r="5" class="arrowMarkerPath" style="stroke-width: 1; stroke-dasharray: 1, 0;"/></marker><marker id="my-svg_flowchart-v2-circleStart" class="marker flowchart-v2" viewBox="0 0 10 10" refX="-1" refY="5" markerUnits="userSpaceOnUse" markerWidth="11" markerHeight="11" orient="auto"><circle cx="5" cy="5" r="5" class="arrowMarkerPath" style="stroke-width: 1; stroke-dasharray: 1, 0;"/></marker><marker id="my-svg_flowchart-v2-circleEnd-margin" class="marker flowchart-v2" viewBox="0 0 10 10" refY="5" refX="12.25" markerUnits="userSpaceOnUse" markerWidth="14" markerHeight="14" orient="auto"><circle cx="5" cy="5" r="5" class="arrowMarkerPath" style="stroke-width: 0; stroke-dasharray: 1, 0;"/></marker><marker id="my-svg_flowchart-v2-circleStart-margin" class="marker flowchart-v2" viewBox="0 0 10 10" refX="-2" refY="5" markerUnits="userSpaceOnUse" markerWidth="14" markerHeight="14" orient="auto"><circle cx="5" cy="5" r="5" class="arrowMarkerPath" style="stroke-width: 0; stroke-dasharray: 1, 0;"/></marker><marker id="my-svg_flowchart-v2-crossEnd" class="marker cross flowchart-v2" viewBox="0 0 11 11" refX="12" refY="5.2" markerUnits="userSpaceOnUse" markerWidth="11" markerHeight="11" orient="auto"><path d="M 1,1 l 9,9 M 10,1 l -9,9" class="arrowMarkerPath" style="stroke-width: 2; stroke-dasharray: 1, 0;"/></marker><marker id="my-svg_flowchart-v2-crossStart" class="marker cross flowchart-v2" viewBox="0 0 11 11" refX="-1" refY="5.2" markerUnits="userSpaceOnUse" markerWidth="11" markerHeight="11" orient="auto"><path d="M 1,1 l 9,9 M 10,1 l -9,9" class="arrowMarkerPath" style="stroke-width: 2; stroke-dasharray: 1, 0;"/></marker><marker id="my-svg_flowchart-v2-crossEnd-margin" class="marker cross flowchart-v2" viewBox="0 0 15 15" refX="17.7" refY="7.5" markerUnits="userSpaceOnUse" markerWidth="12" markerHeight="12" orient="auto"><path d="M 1,1 L 14,14 M 1,14 L 14,1" class="arrowMarkerPath" style="stroke-width: 2.5;"/></marker><marker id="my-svg_flowchart-v2-crossStart-margin" class="marker cross flowchart-v2" viewBox="0 0 15 15" refX="-3.5" refY="7.5" markerUnits="userSpaceOnUse" markerWidth="12" markerHeight="12" orient="auto"><path d="M 1,1 L 14,14 M 1,14 L 14,1" class="arrowMarkerPath" style="stroke-width: 2.5; stroke-dasharray: 1, 0;"/></marker><g class="root"><g class="clusters"/><g class="edgePaths"><path d="M76.042,135.5L80.126,135.417C84.209,135.333,92.376,135.167,99.959,135.083C107.542,135,114.542,135,118.042,135L121.542,135" id="my-svg-L_start_Q1_0" class="edge-thickness-normal edge-pattern-solid edge-thickness-normal edge-pattern-solid flowchart-link" style=";" data-edge="true" data-et="edge" data-id="L_start_Q1_0" data-points="W3sieCI6NzYuMDQyNDYyNDMxODI3ODQsInkiOjEzNS41fSx7IngiOjEwMC41NDI0NjUyMDk5NjA5NCwieSI6MTM1fSx7IngiOjEyNS41NDI0NjUyMDk5NjA5NCwieSI6MTM1fV0=" data-look="classic" marker-end="url(#my-svg_flowchart-v2-pointEnd)"/><path d="M267.077,98.253L279.256,89.711C291.435,81.169,315.793,64.084,334.625,55.542C353.457,47,366.761,47,373.414,47L380.066,47" id="my-svg-L_Q1_B_0" class="edge-thickness-normal edge-pattern-solid edge-thickness-normal edge-pattern-solid flowchart-link" style=";" data-edge="true" data-et="edge" data-id="L_Q1_B_0" data-points="W3sieCI6MjY3LjA3NjUzMzI0NTM4NzcsInkiOjk4LjI1MjgxODAzNTQyNjczfSx7IngiOjM0MC4xNTE4NDAyMDk5NjA5NCwieSI6NDd9LHsieCI6Mzg0LjA2NTkwMjcwOTk2MDk0LCJ5Ijo0N31d" data-look="classic" marker-end="url(#my-svg_flowchart-v2-pointEnd)"/><path d="M267.077,171.747L279.256,180.289C291.435,188.831,315.793,205.916,333.361,214.458C350.928,223,361.704,223,367.092,223L372.48,223" id="my-svg-L_Q1_Q2_0" class="edge-thickness-normal edge-pattern-solid edge-thickness-normal edge-pattern-solid flowchart-link" style=";" data-edge="true" data-et="edge" data-id="L_Q1_Q2_0" data-points="W3sieCI6MjY3LjA3NjUzMzI0NTM4NzcsInkiOjE3MS43NDcxODE5NjQ1NzMyNn0seyJ4IjozNDAuMTUxODQwMjA5OTYwOTQsInkiOjIyM30seyJ4IjozNzYuNDc5OTY1MjA5OTYwOTQsInkiOjIyM31d" data-look="classic" marker-end="url(#my-svg_flowchart-v2-pointEnd)"/><path d="M524.677,197.197L535.032,192.831C545.387,188.465,566.098,179.732,581.841,175.366C597.584,171,608.36,171,613.748,171L619.136,171" id="my-svg-L_Q2_C_0" class="edge-thickness-normal edge-pattern-solid edge-thickness-normal edge-pattern-solid flowchart-link" style=";" data-edge="true" data-et="edge" data-id="L_Q2_C_0" data-points="W3sieCI6NTI0LjY3NjkxNzM1MzI2MzcsInkiOjE5Ny4xOTY5NTIxNDMzMDI3Mn0seyJ4Ijo1ODYuODA4MDkwMjA5OTYwOSwieSI6MTcxfSx7IngiOjYyMy4xMzYyMTUyMDk5NjA5LCJ5IjoxNzF9XQ==" data-look="classic" marker-end="url(#my-svg_flowchart-v2-pointEnd)"/><path d="M524.677,248.803L535.032,253.169C545.387,257.535,566.098,266.268,583.756,270.634C601.415,275,616.022,275,623.325,275L630.628,275" id="my-svg-L_Q2_A_0" class="edge-thickness-normal edge-pattern-solid edge-thickness-normal edge-pattern-solid flowchart-link" style=";" data-edge="true" data-et="edge" data-id="L_Q2_A_0" data-points="W3sieCI6NTI0LjY3NjkxNzM1MzI2MzcsInkiOjI0OC44MDMwNDc4NTY2OTcyOH0seyJ4Ijo1ODYuODA4MDkwMjA5OTYwOSwieSI6Mjc1fSx7IngiOjYzNC42Mjg0MDI3MDk5NjA5LCJ5IjoyNzV9XQ==" data-look="classic" marker-end="url(#my-svg_flowchart-v2-pointEnd)"/></g><g class="edgeLabels"><g class="edgeLabel"><g class="label" data-id="L_start_Q1_0" transform="translate(0, 0)"><foreignObject width="0" height="0"><div xmlns="http://www.w3.org/1999/xhtml" class="labelBkg" style="display: table-cell; white-space: nowrap; line-height: 1.5; max-width: 200px; text-align: center;"><span class="edgeLabel"></span></div></foreignObject></g></g><g class="edgeLabel" transform="translate(340.15184020996094, 47)"><g class="label" data-id="L_Q1_B_0" transform="translate(-11.328125, -12)"><foreignObject width="22.65625" height="24"><div xmlns="http://www.w3.org/1999/xhtml" class="labelBkg" style="display: table-cell; white-space: nowrap; line-height: 1.5; max-width: 200px; text-align: center;"><span class="edgeLabel"><p>Yes</p></span></div></foreignObject></g></g><g class="edgeLabel" transform="translate(340.15184020996094, 223)"><g class="label" data-id="L_Q1_Q2_0" transform="translate(-9.3984375, -12)"><foreignObject width="18.796875" height="24"><div xmlns="http://www.w3.org/1999/xhtml" class="labelBkg" style="display: table-cell; white-space: nowrap; line-height: 1.5; max-width: 200px; text-align: center;"><span class="edgeLabel"><p>No</p></span></div></foreignObject></g></g><g class="edgeLabel" transform="translate(586.8080902099609, 171)"><g class="label" data-id="L_Q2_C_0" transform="translate(-11.328125, -12)"><foreignObject width="22.65625" height="24"><div xmlns="http://www.w3.org/1999/xhtml" class="labelBkg" style="display: table-cell; white-space: nowrap; line-height: 1.5; max-width: 200px; text-align: center;"><span class="edgeLabel"><p>Yes</p></span></div></foreignObject></g></g><g class="edgeLabel" transform="translate(586.8080902099609, 275)"><g class="label" data-id="L_Q2_A_0" transform="translate(-9.3984375, -12)"><foreignObject width="18.796875" height="24"><div xmlns="http://www.w3.org/1999/xhtml" class="labelBkg" style="display: table-cell; white-space: nowrap; line-height: 1.5; max-width: 200px; text-align: center;"><span class="edgeLabel"><p>No</p></span></div></foreignObject></g></g></g><g class="nodes"><g class="node default" id="my-svg-flowchart-start-0" data-look="classic" transform="translate(41.77123260498047, 135)"><g class="basic label-container outer-path"><path d="M-14.28125 -19.5 C-4.679726738302751 -19.5, 4.921796523394498 -19.5, 14.28125 -19.5 C14.28125 -19.5, 14.281249999999998 -19.5, 14.281249999999998 -19.5 C14.686912612496602 -19.48699118959161, 15.092575224993206 -19.47398237918322, 15.5306192896239 -19.45993515863156 C15.968996304856176 -19.417645455197597, 16.407373320088453 -19.375355751763635, 16.774854652847864 -19.3399052695533 C17.221755778340842 -19.267653761353586, 17.66865690383382 -19.19540225315387, 18.00884325967676 -19.140403561325776 C18.36155185328355 -19.059900126473696, 18.714260446890346 -18.97939669162162, 19.22751438623539 -18.862249829261074 C19.635196831776437 -18.74125181939332, 20.04287927731748 -18.62025380952556, 20.425860251460602 -18.50658706670804 C20.7601177534609 -18.383577216129453, 21.094375255461195 -18.260567365550866, 21.598956595147794 -18.074876768247425 C21.90589724091602 -17.939003249436585, 22.21283788668424 -17.803129730625745, 22.74198291279238 -17.568892924097174 C23.061545127143454 -17.402177521559587, 23.381107341494527 -17.235462119022, 23.850242264076783 -16.990714730406097 C24.229653806468967 -16.76071322373824, 24.60906534886115 -16.530711717070385, 24.919180573605697 -16.342718045390892 C25.27977028056586 -16.091186275492316, 25.64035998752602 -15.839654505593737, 25.944405344578712 -15.627565626425154 C26.159464935037416 -15.45606132601039, 26.374524525496117 -15.284557025595626, 26.92170370850187 -14.848196188198123 C27.194057596467115 -14.600851593237081, 27.46641148443236 -14.353506998276039, 27.847059736767985 -14.007812326905688 C28.049160583673615 -13.79912660968751, 28.25126143057924 -13.590440892469335, 28.716670942968648 -13.10986736009568 C28.89011952408392 -12.906124787213827, 29.063568105199195 -12.702382214331971, 29.526963908126582 -12.158051136245305 C29.67896717475415 -11.954380606746833, 29.830970441381712 -11.75071007724836, 30.274608964640635 -11.156274872382312 C30.472935401232895 -10.851592207671539, 30.671261837825153 -10.546909542960766, 30.956533878604247 -10.108655082055241 C31.14990435867969 -9.765306213796903, 31.34327483875514 -9.421957345538562, 31.5699364742735 -9.019496659696287 C31.746685502500945 -8.652473520758633, 31.923434530728386 -8.285450381820981, 32.11229614880834 -7.893275190886684 C32.2349288517979 -7.590370043560449, 32.357561554787466 -7.287464896234214, 32.581384229970325 -6.734618561215508 C32.7204155963096 -6.315878237441596, 32.85944696264887 -5.897137913667684, 32.97527313421488 -5.548287939305138 C33.04307660116374 -5.289723933620671, 33.1108800681126 -5.031159927936203, 33.29234428754556 -4.339158212148133 C33.37858935945266 -3.896307995807582, 33.464834431359755 -3.453457779467031, 33.531294776581774 -3.1121979531509023 C33.58287792931477 -2.7121292067994447, 33.634461082047764 -2.312060460447987, 33.69114270250937 -1.872449005199798 C33.71711931739435 -1.4678422604200327, 33.74309593227934 -1.0632355156402677, 33.77123121591342 -0.6250057626472757 C33.77123121591342 -0.35537122480795424, 33.77123121591342 -0.08573668696863279, 33.77123121591342 0.625005762647271 C33.75235651879463 0.918994405653685, 33.73348182167584 1.212983048660099, 33.69114270250937 1.8724490051997846 C33.64936509071204 2.196467912377305, 33.6075874789147 2.520486819554825, 33.531294776581774 3.1121979531508885 C33.465541333723586 3.449827985232634, 33.39978789086539 3.7874580173143793, 33.29234428754556 4.339158212148129 C33.19729510927711 4.70162192346018, 33.10224593100866 5.064085634772231, 32.97527313421489 5.548287939305125 C32.8880760287612 5.810911727959584, 32.80087892330751 6.073535516614043, 32.581384229970325 6.734618561215495 C32.470623266480345 7.0082002824533, 32.359862302990365 7.281782003691105, 32.11229614880834 7.893275190886679 C31.93680244846426 8.257691614614822, 31.761308748120175 8.622108038342967, 31.569936474273504 9.019496659696284 C31.413024350514057 9.298110024506666, 31.256112226754606 9.57672338931705, 30.95653387860425 10.108655082055236 C30.683929848688365 10.527448076437656, 30.41132581877248 10.946241070820077, 30.27460896464064 11.156274872382301 C30.06967449245652 11.430868395194532, 29.8647400202724 11.705461918006764, 29.526963908126582 12.158051136245302 C29.356843281007496 12.357884504997289, 29.18672265388841 12.557717873749276, 28.71667094296866 13.10986736009567 C28.533587718491724 13.298915820780383, 28.350504494014785 13.487964281465095, 27.84705973676799 14.007812326905684 C27.604345779238983 14.22823872127412, 27.361631821709974 14.448665115642557, 26.921703708501887 14.848196188198111 C26.686813518523437 15.03551486401546, 26.451923328544982 15.222833539832807, 25.944405344578715 15.627565626425152 C25.733248191081536 15.774859715858936, 25.522091037584353 15.922153805292718, 24.919180573605708 16.34271804539089 C24.649834930048325 16.50599695736607, 24.380489286490942 16.669275869341252, 23.850242264076787 16.990714730406093 C23.568012571086324 17.13795378046247, 23.285782878095862 17.28519283051885, 22.741982912792388 17.56889292409717 C22.42376816611468 17.709757152946317, 22.105553419436973 17.850621381795463, 21.598956595147804 18.07487676824742 C21.16904054849736 18.233089847515153, 20.73912450184692 18.39130292678289, 20.425860251460616 18.506587066708033 C20.122452980805356 18.59663675202125, 19.819045710150096 18.686686437334473, 19.227514386235413 18.86224982926107 C18.865723610015614 18.94482621302779, 18.50393283379581 19.027402596794502, 18.008843259676766 19.140403561325773 C17.633590183250142 19.20107156859136, 17.258337106823518 19.261739575856947, 16.77485465284788 19.3399052695533 C16.338264683768962 19.382022578794082, 15.90167471469005 19.424139888034865, 15.5306192896239 19.45993515863156 C15.070185940650157 19.474700359954, 14.609752591676417 19.489465561276443, 14.281250000000004 19.5 C14.281250000000002 19.5, 14.281250000000002 19.5, 14.28125 19.5 C3.3950032037991473 19.5, -7.491243592401705 19.5, -14.281249999999996 19.5 C-14.704416811087539 19.486429864012653, -15.12758362217508 19.472859728025306, -15.530619289623893 19.45993515863156 C-15.937216564450825 19.42071120853377, -16.343813839277757 19.381487258435985, -16.77485465284787 19.3399052695533 C-17.14453339983088 19.280138476642584, -17.51421214681389 19.220371683731873, -18.00884325967676 19.140403561325773 C-18.406229246576977 19.049702803001708, -18.803615233477192 18.959002044677646, -19.227514386235388 18.862249829261074 C-19.526050454189647 18.77364589134005, -19.824586522143907 18.685041953419024, -20.42586025146059 18.506587066708043 C-20.820947679219273 18.361191241144702, -21.216035106977955 18.21579541558136, -21.598956595147797 18.074876768247425 C-21.93742191276776 17.925048212353985, -22.27588723038772 17.775219656460546, -22.74198291279238 17.568892924097174 C-23.03959960770038 17.41362648499626, -23.337216302608383 17.258360045895348, -23.85024226407678 16.990714730406097 C-24.100975265247424 16.838718911625783, -24.35170826641807 16.686723092845472, -24.919180573605686 16.3427180453909 C-25.131259857998543 16.194780717362697, -25.343339142391397 16.046843389334494, -25.944405344578712 15.627565626425156 C-26.274604062207924 15.364240936072763, -26.60480277983714 15.100916245720368, -26.92170370850187 14.848196188198125 C-27.221667414952147 14.575777086604742, -27.521631121402425 14.303357985011358, -27.847059736767974 14.007812326905697 C-28.168485002896382 13.67591435012299, -28.489910269024787 13.344016373340287, -28.716670942968655 13.109867360095677 C-28.979867712070885 12.800701458787774, -29.243064481173118 12.491535557479871, -29.52696390812658 12.158051136245307 C-29.754515185190083 11.853153155328014, -29.98206646225359 11.54825517441072, -30.274608964640635 11.156274872382316 C-30.487300004788214 10.829524319174427, -30.699991044935793 10.502773765966538, -30.956533878604244 10.108655082055249 C-31.104051526755608 9.846722559980828, -31.251569174906972 9.584790037906409, -31.5699364742735 9.019496659696289 C-31.770558772131352 8.602900165564948, -31.971181069989207 8.18630367143361, -32.11229614880834 7.893275190886686 C-32.22969081568228 7.6033080940365645, -32.34708548255623 7.313340997186442, -32.581384229970325 6.73461856121551 C-32.73186541721858 6.281393201144954, -32.88234660446684 5.828167841074397, -32.97527313421488 5.5482879393051325 C-33.05029198515271 5.262208547303533, -33.125310836090534 4.976129155301935, -33.29234428754556 4.339158212148136 C-33.371320845049894 3.933630281064713, -33.45029740255423 3.52810234998129, -33.531294776581774 3.112197953150904 C-33.57125827706329 2.8022489351020092, -33.61122177754482 2.4922999170531144, -33.69114270250937 1.872449005199809 C-33.714598196383896 1.5071107551700913, -33.73805369025843 1.1417725051403735, -33.77123121591342 0.6250057626472781 C-33.77123121591342 0.23979941258775644, -33.77123121591342 -0.14540693747176525, -33.77123121591342 -0.6250057626472687 C-33.74605558968387 -1.0171364625722106, -33.72087996345432 -1.4092671624971524, -33.69114270250937 -1.8724490051997822 C-33.65579693232206 -2.1465838189607034, -33.62045116213476 -2.4207186327216244, -33.531294776581774 -3.112197953150895 C-33.444296027117815 -3.5589181444561104, -33.357297277653856 -4.005638335761326, -33.29234428754556 -4.339158212148126 C-33.22648191853935 -4.59031997010012, -33.16061954953313 -4.8414817280521145, -32.97527313421489 -5.548287939305123 C-32.824912767237024 -6.001149407971338, -32.67455240025917 -6.454010876637554, -32.58138422997033 -6.734618561215485 C-32.419269993992394 -7.135043858346515, -32.25715575801446 -7.535469155477546, -32.11229614880834 -7.893275190886676 C-31.98327252846028 -8.161195499202655, -31.854248908112215 -8.429115807518636, -31.569936474273504 -9.019496659696282 C-31.38957034599842 -9.339754984499667, -31.209204217723336 -9.660013309303054, -30.956533878604247 -10.108655082055243 C-30.74349621792293 -10.4359381374836, -30.530458557241616 -10.763221192911955, -30.27460896464064 -11.156274872382308 C-30.075951252340516 -11.42245810877457, -29.877293540040395 -11.688641345166834, -29.526963908126586 -12.158051136245302 C-29.33706132065845 -12.381121521248714, -29.147158733190317 -12.604191906252128, -28.716670942968662 -13.10986736009567 C-28.53521241374435 -13.297238189542087, -28.353753884520035 -13.484609018988504, -27.847059736767996 -14.007812326905677 C-27.582230978364006 -14.248322798303203, -27.317402219960016 -14.48883326970073, -26.921703708501887 -14.848196188198107 C-26.65322614226185 -15.06229990278645, -26.384748576021817 -15.276403617374793, -25.94440534457872 -15.627565626425149 C-25.67248672644396 -15.817244283268696, -25.4005681083092 -16.006922940112243, -24.91918057360571 -16.342718045390885 C-24.538518862722068 -16.573477411545067, -24.157857151838424 -16.80423677769925, -23.85024226407679 -16.99071473040609 C-23.60982920477417 -17.116138069452354, -23.369416145471543 -17.24156140849862, -22.741982912792388 -17.56889292409717 C-22.31829164828499 -17.756448478539788, -21.894600383777593 -17.944004032982406, -21.598956595147804 -18.07487676824742 C-21.257768210881633 -18.200437247568225, -20.916579826615457 -18.325997726889025, -20.42586025146062 -18.506587066708033 C-20.124066611543213 -18.596157834888377, -19.82227297162581 -18.685728603068718, -19.227514386235413 -18.862249829261067 C-18.82649146524437 -18.95378069405815, -18.425468544253327 -19.045311558855232, -18.008843259676766 -19.140403561325773 C-17.561929827473325 -19.212657059178998, -17.115016395269883 -19.28491055703222, -16.774854652847882 -19.3399052695533 C-16.452955954018705 -19.370958449889525, -16.131057255189532 -19.402011630225747, -15.530619289623903 -19.45993515863156 C-15.067535792114102 -19.474785345059352, -14.604452294604302 -19.489635531487142, -14.281250000000005 -19.5 C-14.281250000000004 -19.5, -14.281250000000002 -19.5, -14.28125 -19.5" stroke="none" stroke-width="0" fill="#ECECFF" style=""/><path d="M-14.28125 -19.5 C-3.999196980775146 -19.5, 6.282856038449708 -19.5, 14.28125 -19.5 M-14.28125 -19.5 C-4.567439490903308 -19.5, 5.146371018193385 -19.5, 14.28125 -19.5 M14.28125 -19.5 C14.28125 -19.5, 14.281249999999998 -19.5, 14.281249999999998 -19.5 M14.28125 -19.5 C14.28125 -19.5, 14.281249999999998 -19.5, 14.281249999999998 -19.5 M14.281249999999998 -19.5 C14.57603831160873 -19.49054671261735, 14.870826623217463 -19.481093425234697, 15.5306192896239 -19.45993515863156 M14.281249999999998 -19.5 C14.566195970217699 -19.490862337348805, 14.851141940435397 -19.481724674697606, 15.5306192896239 -19.45993515863156 M15.5306192896239 -19.45993515863156 C15.99824787384026 -19.414823591517862, 16.46587645805662 -19.369712024404166, 16.774854652847864 -19.3399052695533 M15.5306192896239 -19.45993515863156 C15.93321419126126 -19.42109731266181, 16.33580909289862 -19.382259466692062, 16.774854652847864 -19.3399052695533 M16.774854652847864 -19.3399052695533 C17.022878165907493 -19.299806751412888, 17.270901678967117 -19.25970823327248, 18.00884325967676 -19.140403561325776 M16.774854652847864 -19.3399052695533 C17.159131404204775 -19.27777838450463, 17.543408155561682 -19.21565149945596, 18.00884325967676 -19.140403561325776 M18.00884325967676 -19.140403561325776 C18.44406840229466 -19.041066262632718, 18.879293544912564 -18.94172896393966, 19.22751438623539 -18.862249829261074 M18.00884325967676 -19.140403561325776 C18.40273661942254 -19.05049997235819, 18.796629979168323 -18.9605963833906, 19.22751438623539 -18.862249829261074 M19.22751438623539 -18.862249829261074 C19.68880127113173 -18.72534230316811, 20.15008815602807 -18.588434777075147, 20.425860251460602 -18.50658706670804 M19.22751438623539 -18.862249829261074 C19.669236395593156 -18.731149055529833, 20.11095840495092 -18.60004828179859, 20.425860251460602 -18.50658706670804 M20.425860251460602 -18.50658706670804 C20.784987327532995 -18.374424982979097, 21.144114403605393 -18.242262899250157, 21.598956595147794 -18.074876768247425 M20.425860251460602 -18.50658706670804 C20.683924310983002 -18.41161710728578, 20.941988370505403 -18.31664714786352, 21.598956595147794 -18.074876768247425 M21.598956595147794 -18.074876768247425 C21.933391034699156 -17.926832562503204, 22.267825474250515 -17.778788356758987, 22.74198291279238 -17.568892924097174 M21.598956595147794 -18.074876768247425 C21.890810525630304 -17.94568169076206, 22.182664456112818 -17.816486613276698, 22.74198291279238 -17.568892924097174 M22.74198291279238 -17.568892924097174 C23.130829166246198 -17.366032082738233, 23.51967541970001 -17.16317124137929, 23.850242264076783 -16.990714730406097 M22.74198291279238 -17.568892924097174 C23.051389867793166 -17.40747551385788, 23.36079682279395 -17.246058103618584, 23.850242264076783 -16.990714730406097 M23.850242264076783 -16.990714730406097 C24.245353376985086 -16.75119605183045, 24.64046448989339 -16.51167737325481, 24.919180573605697 -16.342718045390892 M23.850242264076783 -16.990714730406097 C24.10126136251894 -16.8385454777785, 24.352280460961097 -16.6863762251509, 24.919180573605697 -16.342718045390892 M24.919180573605697 -16.342718045390892 C25.244626557058567 -16.11570101566373, 25.570072540511436 -15.88868398593657, 25.944405344578712 -15.627565626425154 M24.919180573605697 -16.342718045390892 C25.222776446521852 -16.130942706898104, 25.526372319438007 -15.919167368405313, 25.944405344578712 -15.627565626425154 M25.944405344578712 -15.627565626425154 C26.231370091869664 -15.398718876913255, 26.518334839160616 -15.169872127401355, 26.92170370850187 -14.848196188198123 M25.944405344578712 -15.627565626425154 C26.18667945414076 -15.43435847123424, 26.428953563702805 -15.241151316043329, 26.92170370850187 -14.848196188198123 M26.92170370850187 -14.848196188198123 C27.21824265080094 -14.578887366792577, 27.514781593100007 -14.309578545387028, 27.847059736767985 -14.007812326905688 M26.92170370850187 -14.848196188198123 C27.142962777292908 -14.647254556116264, 27.364221846083943 -14.446312924034405, 27.847059736767985 -14.007812326905688 M27.847059736767985 -14.007812326905688 C28.13910476553359 -13.706251857362421, 28.431149794299195 -13.404691387819152, 28.716670942968648 -13.10986736009568 M27.847059736767985 -14.007812326905688 C28.166306225468375 -13.67816411669836, 28.48555271416877 -13.34851590649103, 28.716670942968648 -13.10986736009568 M28.716670942968648 -13.10986736009568 C29.028331362144318 -12.743773297751707, 29.339991781319988 -12.377679235407733, 29.526963908126582 -12.158051136245305 M28.716670942968648 -13.10986736009568 C28.887028779700092 -12.909755351435408, 29.05738661643154 -12.709643342775133, 29.526963908126582 -12.158051136245305 M29.526963908126582 -12.158051136245305 C29.712908379116122 -11.908902485009111, 29.898852850105666 -11.65975383377292, 30.274608964640635 -11.156274872382312 M29.526963908126582 -12.158051136245305 C29.82325773861651 -11.761044396312057, 30.119551569106434 -11.364037656378809, 30.274608964640635 -11.156274872382312 M30.274608964640635 -11.156274872382312 C30.524070972642928 -10.773034238162166, 30.77353298064522 -10.389793603942021, 30.956533878604247 -10.108655082055241 M30.274608964640635 -11.156274872382312 C30.481235289299295 -10.838841350769536, 30.687861613957956 -10.521407829156761, 30.956533878604247 -10.108655082055241 M30.956533878604247 -10.108655082055241 C31.11226406493467 -9.832140366834231, 31.267994251265097 -9.555625651613223, 31.5699364742735 -9.019496659696287 M30.956533878604247 -10.108655082055241 C31.141029376472662 -9.781064643394886, 31.325524874341074 -9.453474204734531, 31.5699364742735 -9.019496659696287 M31.5699364742735 -9.019496659696287 C31.68610232737682 -8.778275780176166, 31.802268180480137 -8.537054900656047, 32.11229614880834 -7.893275190886684 M31.5699364742735 -9.019496659696287 C31.743028214417773 -8.66006795771677, 31.916119954562042 -8.300639255737252, 32.11229614880834 -7.893275190886684 M32.11229614880834 -7.893275190886684 C32.270749503663744 -7.501892340906621, 32.429202858519155 -7.1105094909265585, 32.581384229970325 -6.734618561215508 M32.11229614880834 -7.893275190886684 C32.29531374048373 -7.441218201044065, 32.47833133215911 -6.989161211201447, 32.581384229970325 -6.734618561215508 M32.581384229970325 -6.734618561215508 C32.72668098838745 -6.297007874757757, 32.87197774680458 -5.8593971883000044, 32.97527313421488 -5.548287939305138 M32.581384229970325 -6.734618561215508 C32.69208841784763 -6.401195185646075, 32.80279260572493 -6.067771810076642, 32.97527313421488 -5.548287939305138 M32.97527313421488 -5.548287939305138 C33.04506250135934 -5.282150835480273, 33.11485186850379 -5.016013731655408, 33.29234428754556 -4.339158212148133 M32.97527313421488 -5.548287939305138 C33.04513715564452 -5.281866146335499, 33.115001177074156 -5.0154443533658615, 33.29234428754556 -4.339158212148133 M33.29234428754556 -4.339158212148133 C33.365538360417425 -3.9633221175238846, 33.43873243328929 -3.587486022899636, 33.531294776581774 -3.1121979531509023 M33.29234428754556 -4.339158212148133 C33.36058665913079 -3.988748057088314, 33.428829030716024 -3.6383379020284945, 33.531294776581774 -3.1121979531509023 M33.531294776581774 -3.1121979531509023 C33.577518800627274 -2.753693550619995, 33.623742824672775 -2.395189148089088, 33.69114270250937 -1.872449005199798 M33.531294776581774 -3.1121979531509023 C33.588762460422295 -2.666489945561601, 33.64623014426281 -2.2207819379722995, 33.69114270250937 -1.872449005199798 M33.69114270250937 -1.872449005199798 C33.71526429919089 -1.4967356662826696, 33.73938589587242 -1.1210223273655413, 33.77123121591342 -0.6250057626472757 M33.69114270250937 -1.872449005199798 C33.71998523182915 -1.4232033297735733, 33.74882776114893 -0.9739576543473488, 33.77123121591342 -0.6250057626472757 M33.77123121591342 -0.6250057626472757 C33.77123121591342 -0.1316301412904285, 33.77123121591342 0.3617454800664187, 33.77123121591342 0.625005762647271 M33.77123121591342 -0.6250057626472757 C33.77123121591342 -0.18914893320881943, 33.77123121591342 0.24670789622963685, 33.77123121591342 0.625005762647271 M33.77123121591342 0.625005762647271 C33.75345470111085 0.9018893296417768, 33.73567818630828 1.1787728966362825, 33.69114270250937 1.8724490051997846 M33.77123121591342 0.625005762647271 C33.74126874381191 1.091695450900476, 33.71130627171039 1.558385139153681, 33.69114270250937 1.8724490051997846 M33.69114270250937 1.8724490051997846 C33.64572345552422 2.224711715771794, 33.60030420853907 2.5769744263438037, 33.531294776581774 3.1121979531508885 M33.69114270250937 1.8724490051997846 C33.62956812541484 2.3500092658693315, 33.567993548320324 2.8275695265388783, 33.531294776581774 3.1121979531508885 M33.531294776581774 3.1121979531508885 C33.44524656724619 3.55403732179365, 33.3591983579106 3.9958766904364116, 33.29234428754556 4.339158212148129 M33.531294776581774 3.1121979531508885 C33.44169936246811 3.572251468627104, 33.35210394835444 4.03230498410332, 33.29234428754556 4.339158212148129 M33.29234428754556 4.339158212148129 C33.17141432258463 4.8003165799225, 33.05048435762371 5.261474947696871, 32.97527313421489 5.548287939305125 M33.29234428754556 4.339158212148129 C33.210715516405145 4.65044409463974, 33.12908674526473 4.96172997713135, 32.97527313421489 5.548287939305125 M32.97527313421489 5.548287939305125 C32.87416112563863 5.8528211991260255, 32.77304911706237 6.157354458946925, 32.581384229970325 6.734618561215495 M32.97527313421489 5.548287939305125 C32.83435514463544 5.972710471685858, 32.69343715505599 6.39713300406659, 32.581384229970325 6.734618561215495 M32.581384229970325 6.734618561215495 C32.45242929381283 7.053139746698593, 32.323474357655336 7.3716609321816895, 32.11229614880834 7.893275190886679 M32.581384229970325 6.734618561215495 C32.41112181657406 7.155170014104104, 32.24085940317779 7.5757214669927135, 32.11229614880834 7.893275190886679 M32.11229614880834 7.893275190886679 C31.989447922554085 8.148372161234605, 31.866599696299826 8.40346913158253, 31.569936474273504 9.019496659696284 M32.11229614880834 7.893275190886679 C31.98939734726993 8.148477181894286, 31.86649854573152 8.403679172901894, 31.569936474273504 9.019496659696284 M31.569936474273504 9.019496659696284 C31.4010719192372 9.319332776553633, 31.232207364200896 9.619168893410984, 30.95653387860425 10.108655082055236 M31.569936474273504 9.019496659696284 C31.430811790797474 9.266526623109813, 31.291687107321447 9.513556586523343, 30.95653387860425 10.108655082055236 M30.95653387860425 10.108655082055236 C30.764245604058416 10.40406150838916, 30.571957329512585 10.699467934723085, 30.27460896464064 11.156274872382301 M30.95653387860425 10.108655082055236 C30.818742133127525 10.32034020537195, 30.680950387650803 10.532025328688665, 30.27460896464064 11.156274872382301 M30.27460896464064 11.156274872382301 C30.00460582611945 11.518054480208752, 29.73460268759826 11.879834088035203, 29.526963908126582 12.158051136245302 M30.27460896464064 11.156274872382301 C29.97993124781306 11.55111616723899, 29.68525353098548 11.945957462095677, 29.526963908126582 12.158051136245302 M29.526963908126582 12.158051136245302 C29.313368682833907 12.408952241786702, 29.099773457541232 12.659853347328104, 28.71667094296866 13.10986736009567 M29.526963908126582 12.158051136245302 C29.303072222971544 12.421047049426198, 29.079180537816505 12.684042962607094, 28.71667094296866 13.10986736009567 M28.71667094296866 13.10986736009567 C28.5277259095762 13.30496861974912, 28.338780876183744 13.50006987940257, 27.84705973676799 14.007812326905684 M28.71667094296866 13.10986736009567 C28.539993690752222 13.292301128481315, 28.363316438535783 13.47473489686696, 27.84705973676799 14.007812326905684 M27.84705973676799 14.007812326905684 C27.595974031647753 14.235841720932171, 27.344888326527517 14.463871114958657, 26.921703708501887 14.848196188198111 M27.84705973676799 14.007812326905684 C27.543350613119575 14.283632917300105, 27.23964148947116 14.559453507694528, 26.921703708501887 14.848196188198111 M26.921703708501887 14.848196188198111 C26.71762140344314 15.010946395624245, 26.51353909838439 15.173696603050379, 25.944405344578715 15.627565626425152 M26.921703708501887 14.848196188198111 C26.62767508654224 15.082676189780695, 26.33364646458259 15.31715619136328, 25.944405344578715 15.627565626425152 M25.944405344578715 15.627565626425152 C25.61261536051257 15.859007956352777, 25.280825376446423 16.0904502862804, 24.919180573605708 16.34271804539089 M25.944405344578715 15.627565626425152 C25.581669670736144 15.880594329923492, 25.218933996893572 16.13362303342183, 24.919180573605708 16.34271804539089 M24.919180573605708 16.34271804539089 C24.632363767085227 16.51658807902625, 24.345546960564747 16.69045811266161, 23.850242264076787 16.990714730406093 M24.919180573605708 16.34271804539089 C24.62983733348079 16.51811961792423, 24.34049409335587 16.693521190457574, 23.850242264076787 16.990714730406093 M23.850242264076787 16.990714730406093 C23.5083433081486 17.169083196717096, 23.16644435222041 17.3474516630281, 22.741982912792388 17.56889292409717 M23.850242264076787 16.990714730406093 C23.44178516822886 17.203806535680698, 23.03332807238094 17.416898340955303, 22.741982912792388 17.56889292409717 M22.741982912792388 17.56889292409717 C22.404975674831935 17.71807603137774, 22.06796843687148 17.867259138658312, 21.598956595147804 18.07487676824742 M22.741982912792388 17.56889292409717 C22.357429703371686 17.739123222542062, 21.97287649395098 17.909353520986954, 21.598956595147804 18.07487676824742 M21.598956595147804 18.07487676824742 C21.28084978363429 18.191943015431523, 20.962742972120775 18.30900926261563, 20.425860251460616 18.506587066708033 M21.598956595147804 18.07487676824742 C21.24003985997217 18.20696144458198, 20.881123124796538 18.339046120916546, 20.425860251460616 18.506587066708033 M20.425860251460616 18.506587066708033 C20.048227061051545 18.61866661538438, 19.670593870642474 18.730746164060726, 19.227514386235413 18.86224982926107 M20.425860251460616 18.506587066708033 C19.97649114321296 18.639957459249356, 19.52712203496531 18.773327851790675, 19.227514386235413 18.86224982926107 M19.227514386235413 18.86224982926107 C18.944636183473904 18.926814933088597, 18.661757980712395 18.991380036916127, 18.008843259676766 19.140403561325773 M19.227514386235413 18.86224982926107 C18.831345044395732 18.952672896289418, 18.435175702556048 19.043095963317764, 18.008843259676766 19.140403561325773 M18.008843259676766 19.140403561325773 C17.55481778777553 19.213806878602643, 17.100792315874298 19.287210195879513, 16.77485465284788 19.3399052695533 M18.008843259676766 19.140403561325773 C17.685348727157304 19.192703648605953, 17.361854194637843 19.24500373588613, 16.77485465284788 19.3399052695533 M16.77485465284788 19.3399052695533 C16.473267261292058 19.368999042504782, 16.171679869736238 19.39809281545627, 15.5306192896239 19.45993515863156 M16.77485465284788 19.3399052695533 C16.395844470615444 19.37646792600683, 16.016834288383013 19.413030582460358, 15.5306192896239 19.45993515863156 M15.5306192896239 19.45993515863156 C15.114957324311376 19.473264628822196, 14.699295358998853 19.486594099012837, 14.281250000000004 19.5 M15.5306192896239 19.45993515863156 C15.232344239430432 19.469500258934097, 14.934069189236965 19.47906535923664, 14.281250000000004 19.5 M14.281250000000004 19.5 C14.281250000000004 19.5, 14.281250000000002 19.5, 14.28125 19.5 M14.281250000000004 19.5 C14.281250000000004 19.5, 14.281250000000002 19.5, 14.28125 19.5 M14.28125 19.5 C8.497522422095463 19.5, 2.713794844190925 19.5, -14.281249999999996 19.5 M14.28125 19.5 C4.426648632555763 19.5, -5.427952734888475 19.5, -14.281249999999996 19.5 M-14.281249999999996 19.5 C-14.580839825809079 19.490392737402523, -14.880429651618163 19.480785474805046, -15.530619289623893 19.45993515863156 M-14.281249999999996 19.5 C-14.590310644659825 19.49008902667581, -14.899371289319653 19.480178053351622, -15.530619289623893 19.45993515863156 M-15.530619289623893 19.45993515863156 C-15.785682038477152 19.43532956200752, -16.04074478733041 19.410723965383482, -16.77485465284787 19.3399052695533 M-15.530619289623893 19.45993515863156 C-16.013110847493902 19.413389778324834, -16.495602405363915 19.366844398018113, -16.77485465284787 19.3399052695533 M-16.77485465284787 19.3399052695533 C-17.10463133740962 19.28658953264974, -17.434408021971375 19.23327379574618, -18.00884325967676 19.140403561325773 M-16.77485465284787 19.3399052695533 C-17.197318892148672 19.271604527602253, -17.61978313144947 19.203303785651205, -18.00884325967676 19.140403561325773 M-18.00884325967676 19.140403561325773 C-18.35376964839044 19.061676363956916, -18.69869603710412 18.982949166588057, -19.227514386235388 18.862249829261074 M-18.00884325967676 19.140403561325773 C-18.26012723407661 19.083049633950186, -18.511411208476463 19.0256957065746, -19.227514386235388 18.862249829261074 M-19.227514386235388 18.862249829261074 C-19.481688550833052 18.786812271395902, -19.73586271543072 18.71137471353073, -20.42586025146059 18.506587066708043 M-19.227514386235388 18.862249829261074 C-19.563747358771643 18.762457647935204, -19.8999803313079 18.66266546660933, -20.42586025146059 18.506587066708043 M-20.42586025146059 18.506587066708043 C-20.8444818607944 18.352530444777464, -21.263103470128208 18.19847382284689, -21.598956595147797 18.074876768247425 M-20.42586025146059 18.506587066708043 C-20.809994047928754 18.36522227871387, -21.194127844396917 18.2238574907197, -21.598956595147797 18.074876768247425 M-21.598956595147797 18.074876768247425 C-21.950662651516225 17.9191869300826, -22.302368707884654 17.763497091917774, -22.74198291279238 17.568892924097174 M-21.598956595147797 18.074876768247425 C-22.008456323834974 17.893603385735464, -22.417956052522154 17.712330003223506, -22.74198291279238 17.568892924097174 M-22.74198291279238 17.568892924097174 C-23.139536980271984 17.361489221738598, -23.537091047751588 17.154085519380022, -23.85024226407678 16.990714730406097 M-22.74198291279238 17.568892924097174 C-23.09785054047382 17.38323701067986, -23.453718168155262 17.19758109726255, -23.85024226407678 16.990714730406097 M-23.85024226407678 16.990714730406097 C-24.067987529137685 16.858716271112964, -24.28573279419859 16.726717811819828, -24.919180573605686 16.3427180453909 M-23.85024226407678 16.990714730406097 C-24.18970259319459 16.784931884004557, -24.529162922312395 16.57914903760302, -24.919180573605686 16.3427180453909 M-24.919180573605686 16.3427180453909 C-25.30956832592436 16.070400448986817, -25.699956078243037 15.798082852582736, -25.944405344578712 15.627565626425156 M-24.919180573605686 16.3427180453909 C-25.154413731780597 16.178629577327378, -25.389646889955504 16.01454110926386, -25.944405344578712 15.627565626425156 M-25.944405344578712 15.627565626425156 C-26.26357871756756 15.37303335502671, -26.582752090556415 15.118501083628262, -26.92170370850187 14.848196188198125 M-25.944405344578712 15.627565626425156 C-26.238979571506974 15.392650519399261, -26.533553798435236 15.157735412373366, -26.92170370850187 14.848196188198125 M-26.92170370850187 14.848196188198125 C-27.14471322613132 14.645664844795556, -27.367722743760773 14.443133501392987, -27.847059736767974 14.007812326905697 M-26.92170370850187 14.848196188198125 C-27.13579718558403 14.653762156915102, -27.349890662666187 14.459328125632076, -27.847059736767974 14.007812326905697 M-27.847059736767974 14.007812326905697 C-28.02229870937595 13.826863700300745, -28.197537681983924 13.645915073695791, -28.716670942968655 13.109867360095677 M-27.847059736767974 14.007812326905697 C-28.1029266041243 13.743608779299805, -28.358793471480624 13.479405231693914, -28.716670942968655 13.109867360095677 M-28.716670942968655 13.109867360095677 C-29.02303619046893 12.749993307705427, -29.329401437969203 12.390119255315176, -29.52696390812658 12.158051136245307 M-28.716670942968655 13.109867360095677 C-28.882223199674854 12.915400259178305, -29.047775456381057 12.720933158260932, -29.52696390812658 12.158051136245307 M-29.52696390812658 12.158051136245307 C-29.727929877812425 11.888775045242753, -29.928895847498268 11.619498954240198, -30.274608964640635 11.156274872382316 M-29.52696390812658 12.158051136245307 C-29.77137510347223 11.83056240080009, -30.015786298817883 11.503073665354874, -30.274608964640635 11.156274872382316 M-30.274608964640635 11.156274872382316 C-30.46522852762034 10.863432035125758, -30.655848090600045 10.570589197869202, -30.956533878604244 10.108655082055249 M-30.274608964640635 11.156274872382316 C-30.467115400166122 10.860533292199214, -30.659621835691613 10.564791712016111, -30.956533878604244 10.108655082055249 M-30.956533878604244 10.108655082055249 C-31.139973156401123 9.78294006908578, -31.323412434198005 9.457225056116314, -31.5699364742735 9.019496659696289 M-30.956533878604244 10.108655082055249 C-31.125953909883922 9.807832660879722, -31.295373941163596 9.507010239704194, -31.5699364742735 9.019496659696289 M-31.5699364742735 9.019496659696289 C-31.688352025876632 8.773604233105473, -31.80676757747976 8.527711806514658, -32.11229614880834 7.893275190886686 M-31.5699364742735 9.019496659696289 C-31.69500865029415 8.759781610073555, -31.820080826314793 8.500066560450819, -32.11229614880834 7.893275190886686 M-32.11229614880834 7.893275190886686 C-32.22596319621331 7.612515386193554, -32.33963024361828 7.331755581500422, -32.581384229970325 6.73461856121551 M-32.11229614880834 7.893275190886686 C-32.282123197620855 7.473799096937158, -32.45195024643336 7.054323002987631, -32.581384229970325 6.73461856121551 M-32.581384229970325 6.73461856121551 C-32.68641398816829 6.418285663742655, -32.791443746366255 6.1019527662698, -32.97527313421488 5.5482879393051325 M-32.581384229970325 6.73461856121551 C-32.71060741785213 6.345418908234459, -32.839830605733944 5.956219255253407, -32.97527313421488 5.5482879393051325 M-32.97527313421488 5.5482879393051325 C-33.041466885080254 5.295862478702365, -33.10766063594563 5.043437018099597, -33.29234428754556 4.339158212148136 M-32.97527313421488 5.5482879393051325 C-33.051684208305986 5.256899397026756, -33.12809528239709 4.96551085474838, -33.29234428754556 4.339158212148136 M-33.29234428754556 4.339158212148136 C-33.363212911854504 3.975262804410743, -33.434081536163454 3.61136739667335, -33.531294776581774 3.112197953150904 M-33.29234428754556 4.339158212148136 C-33.37079887308254 3.9363104967982547, -33.44925345861952 3.5334627814483732, -33.531294776581774 3.112197953150904 M-33.531294776581774 3.112197953150904 C-33.59097310147928 2.6493446500640947, -33.650651426376776 2.1864913469772853, -33.69114270250937 1.872449005199809 M-33.531294776581774 3.112197953150904 C-33.57000943239076 2.8119347277699225, -33.60872408819974 2.5116715023889404, -33.69114270250937 1.872449005199809 M-33.69114270250937 1.872449005199809 C-33.70850070885826 1.6020840451852414, -33.72585871520715 1.3317190851706737, -33.77123121591342 0.6250057626472781 M-33.69114270250937 1.872449005199809 C-33.711172801312806 1.5604640483315202, -33.731202900116244 1.2484790914632313, -33.77123121591342 0.6250057626472781 M-33.77123121591342 0.6250057626472781 C-33.77123121591342 0.2966848540452798, -33.77123121591342 -0.031636054556718585, -33.77123121591342 -0.6250057626472687 M-33.77123121591342 0.6250057626472781 C-33.77123121591342 0.2828755921750754, -33.77123121591342 -0.059254578297127325, -33.77123121591342 -0.6250057626472687 M-33.77123121591342 -0.6250057626472687 C-33.75256468102941 -0.915752110821427, -33.73389814614541 -1.2064984589955854, -33.69114270250937 -1.8724490051997822 M-33.77123121591342 -0.6250057626472687 C-33.75220622888341 -0.9213352923327706, -33.7331812418534 -1.2176648220182724, -33.69114270250937 -1.8724490051997822 M-33.69114270250937 -1.8724490051997822 C-33.64328247328623 -2.2436434919832027, -33.59542224406309 -2.614837978766623, -33.531294776581774 -3.112197953150895 M-33.69114270250937 -1.8724490051997822 C-33.640967138656585 -2.2616007701561855, -33.590791574803795 -2.650752535112589, -33.531294776581774 -3.112197953150895 M-33.531294776581774 -3.112197953150895 C-33.47608297127395 -3.3956989043873946, -33.420871165966126 -3.679199855623894, -33.29234428754556 -4.339158212148126 M-33.531294776581774 -3.112197953150895 C-33.45928290386234 -3.481963699850498, -33.38727103114291 -3.8517294465501, -33.29234428754556 -4.339158212148126 M-33.29234428754556 -4.339158212148126 C-33.203050667138584 -4.679673486859815, -33.113757046731614 -5.020188761571504, -32.97527313421489 -5.548287939305123 M-33.29234428754556 -4.339158212148126 C-33.22269196663401 -4.604772699290701, -33.153039645722465 -4.870387186433277, -32.97527313421489 -5.548287939305123 M-32.97527313421489 -5.548287939305123 C-32.88973004168326 -5.805930104569504, -32.804186949151635 -6.063572269833886, -32.58138422997033 -6.734618561215485 M-32.97527313421489 -5.548287939305123 C-32.86476576990642 -5.881118513644789, -32.75425840559796 -6.213949087984455, -32.58138422997033 -6.734618561215485 M-32.58138422997033 -6.734618561215485 C-32.41897863386772 -7.1357635234875385, -32.2565730377651 -7.536908485759592, -32.11229614880834 -7.893275190886676 M-32.58138422997033 -6.734618561215485 C-32.42350624269459 -7.124580242149797, -32.265628255418854 -7.514541923084108, -32.11229614880834 -7.893275190886676 M-32.11229614880834 -7.893275190886676 C-31.914368460740146 -8.304276270134382, -31.71644077267195 -8.715277349382088, -31.569936474273504 -9.019496659696282 M-32.11229614880834 -7.893275190886676 C-32.00098630847252 -8.124412455993067, -31.88967646813669 -8.355549721099457, -31.569936474273504 -9.019496659696282 M-31.569936474273504 -9.019496659696282 C-31.42672364479249 -9.27378554031134, -31.283510815311473 -9.5280744209264, -30.956533878604247 -10.108655082055243 M-31.569936474273504 -9.019496659696282 C-31.3486287140778 -9.412450997764513, -31.127320953882098 -9.805405335832743, -30.956533878604247 -10.108655082055243 M-30.956533878604247 -10.108655082055243 C-30.737370667274043 -10.445348628220957, -30.518207455943838 -10.782042174386671, -30.27460896464064 -11.156274872382308 M-30.956533878604247 -10.108655082055243 C-30.751873129725816 -10.42306895143859, -30.54721238084738 -10.737482820821938, -30.27460896464064 -11.156274872382308 M-30.27460896464064 -11.156274872382308 C-30.07021426444251 -11.430145149907556, -29.865819564244372 -11.704015427432804, -29.526963908126586 -12.158051136245302 M-30.27460896464064 -11.156274872382308 C-30.0676079373944 -11.433637390710743, -29.860606910148157 -11.710999909039176, -29.526963908126586 -12.158051136245302 M-29.526963908126586 -12.158051136245302 C-29.292284430484482 -12.433719004324287, -29.05760495284238 -12.70938687240327, -28.716670942968662 -13.10986736009567 M-29.526963908126586 -12.158051136245302 C-29.23731549968697 -12.498288638259812, -28.947667091247357 -12.83852614027432, -28.716670942968662 -13.10986736009567 M-28.716670942968662 -13.10986736009567 C-28.473587481171343 -13.360870991924775, -28.23050401937402 -13.61187462375388, -27.847059736767996 -14.007812326905677 M-28.716670942968662 -13.10986736009567 C-28.489259885644163 -13.344687947578251, -28.261848828319664 -13.579508535060832, -27.847059736767996 -14.007812326905677 M-27.847059736767996 -14.007812326905677 C-27.59958930286074 -14.232558427271371, -27.35211886895348 -14.457304527637065, -26.921703708501887 -14.848196188198107 M-27.847059736767996 -14.007812326905677 C-27.618132931414078 -14.215717594456754, -27.38920612606016 -14.423622862007829, -26.921703708501887 -14.848196188198107 M-26.921703708501887 -14.848196188198107 C-26.662540892271387 -15.054871637529754, -26.403378076040887 -15.261547086861398, -25.94440534457872 -15.627565626425149 M-26.921703708501887 -14.848196188198107 C-26.6238321030865 -15.08574086682056, -26.32596049767111 -15.323285545443014, -25.94440534457872 -15.627565626425149 M-25.94440534457872 -15.627565626425149 C-25.59562952266603 -15.87085654152945, -25.24685370075334 -16.114147456633752, -24.91918057360571 -16.342718045390885 M-25.94440534457872 -15.627565626425149 C-25.671892963466878 -15.817658466617923, -25.39938058235504 -16.007751306810697, -24.91918057360571 -16.342718045390885 M-24.91918057360571 -16.342718045390885 C-24.606389580393095 -16.532333783640283, -24.293598587180476 -16.72194952188968, -23.85024226407679 -16.99071473040609 M-24.91918057360571 -16.342718045390885 C-24.647318804533434 -16.50752224743959, -24.375457035461157 -16.672326449488295, -23.85024226407679 -16.99071473040609 M-23.85024226407679 -16.99071473040609 C-23.583309548235608 -17.12997335728187, -23.316376832394422 -17.269231984157653, -22.741982912792388 -17.56889292409717 M-23.85024226407679 -16.99071473040609 C-23.479327738743926 -17.184220600690153, -23.10841321341106 -17.377726470974217, -22.741982912792388 -17.56889292409717 M-22.741982912792388 -17.56889292409717 C-22.436332904533206 -17.704195115968158, -22.130682896274024 -17.839497307839146, -21.598956595147804 -18.07487676824742 M-22.741982912792388 -17.56889292409717 C-22.487468444555404 -17.68155892928223, -22.232953976318424 -17.79422493446729, -21.598956595147804 -18.07487676824742 M-21.598956595147804 -18.07487676824742 C-21.210788954855392 -18.21772604805736, -20.822621314562983 -18.360575327867302, -20.42586025146062 -18.506587066708033 M-21.598956595147804 -18.07487676824742 C-21.18190247378644 -18.22835654011444, -20.76484835242508 -18.381836311981456, -20.42586025146062 -18.506587066708033 M-20.42586025146062 -18.506587066708033 C-20.01826860096924 -18.627558129081642, -19.61067695047786 -18.74852919145525, -19.227514386235413 -18.862249829261067 M-20.42586025146062 -18.506587066708033 C-20.142879138944338 -18.590574375504694, -19.859898026428052 -18.674561684301356, -19.227514386235413 -18.862249829261067 M-19.227514386235413 -18.862249829261067 C-18.858913791891123 -18.946380509576482, -18.49031319754683 -19.0305111898919, -18.008843259676766 -19.140403561325773 M-19.227514386235413 -18.862249829261067 C-18.78146472204993 -18.96405775436532, -18.335415057864445 -19.065865679469578, -18.008843259676766 -19.140403561325773 M-18.008843259676766 -19.140403561325773 C-17.546446413562638 -19.215160297464408, -17.08404956744851 -19.289917033603043, -16.774854652847882 -19.3399052695533 M-18.008843259676766 -19.140403561325773 C-17.72653708623194 -19.18604463413126, -17.44423091278711 -19.231685706936748, -16.774854652847882 -19.3399052695533 M-16.774854652847882 -19.3399052695533 C-16.2788762378578 -19.387751710746077, -15.782897822867717 -19.435598151938855, -15.530619289623903 -19.45993515863156 M-16.774854652847882 -19.3399052695533 C-16.487668012512948 -19.36760981935394, -16.200481372178015 -19.395314369154587, -15.530619289623903 -19.45993515863156 M-15.530619289623903 -19.45993515863156 C-15.03508194992805 -19.475826076610687, -14.539544610232198 -19.49171699458981, -14.281250000000005 -19.5 M-15.530619289623903 -19.45993515863156 C-15.218178954876995 -19.469954512038672, -14.905738620130087 -19.47997386544579, -14.281250000000005 -19.5 M-14.281250000000005 -19.5 C-14.281250000000004 -19.5, -14.281250000000002 -19.5, -14.28125 -19.5 M-14.281250000000005 -19.5 C-14.281250000000004 -19.5, -14.281250000000002 -19.5, -14.28125 -19.5" stroke="#9370DB" stroke-width="1.3" fill="none" stroke-dasharray="0 0" style=""/></g><g class="label" style="" transform="translate(-21.40625, -12)"><rect/><foreignObject width="42.8125" height="24"><div xmlns="http://www.w3.org/1999/xhtml" style="display: table-cell; white-space: nowrap; line-height: 1.5; max-width: 200px; text-align: center;"><span class="nodeLabel"><p>START</p></span></div></foreignObject></g></g><g class="node default q" id="my-svg-flowchart-Q1-1" data-look="classic" transform="translate(214.68309020996094, 135)"><polygon points="89.140625,0 178.28125,-89.140625 89.140625,-178.28125 0,-89.140625" class="label-container" transform="translate(-88.640625, 89.140625)" style="fill:#fff !important;stroke:#1A202C !important;stroke-width:2px !important"/><g class="label" style="color:#1A202C !important" transform="translate(-50.140625, -24)"><rect/><foreignObject width="100.28125" height="48"><div style="color: rgb(26, 32, 44) !important; display: table-cell; white-space: nowrap; line-height: 1.5; max-width: 200px; text-align: center;" xmlns="http://www.w3.org/1999/xhtml"><span style="color:#1A202C !important" class="nodeLabel"><p>Laravel 等<br />フルスタック?</p></span></div></foreignObject></g></g><g class="node default b" id="my-svg-flowchart-B-3" data-look="classic" transform="translate(463.47996520996094, 47)"><rect class="basic label-container" style="fill:#FF2D20 !important;stroke:#BC002D !important" x="-79.4140625" y="-39" width="158.828125" height="78"/><g class="label" style="color:#fff !important" transform="translate(-49.4140625, -24)"><rect/><foreignObject width="98.828125" height="48"><div style="color: rgb(255, 255, 255) !important; display: table-cell; white-space: nowrap; line-height: 1.5; max-width: 200px; text-align: center;" xmlns="http://www.w3.org/1999/xhtml"><span style="color:#fff !important" class="nodeLabel"><p>B: Containers<br />+ FrankenPHP</p></span></div></foreignObject></g></g><g class="node default q" id="my-svg-flowchart-Q2-5" data-look="classic" transform="translate(463.47996520996094, 223)"><polygon points="87,0 174,-87 87,-174 0,-87" class="label-container" transform="translate(-86.5, 87)" style="fill:#fff !important;stroke:#1A202C !important;stroke-width:2px !important"/><g class="label" style="color:#1A202C !important" transform="translate(-48, -24)"><rect/><foreignObject width="96" height="48"><div style="color: rgb(26, 32, 44) !important; display: table-cell; white-space: nowrap; line-height: 1.5; max-width: 200px; text-align: center;" xmlns="http://www.w3.org/1999/xhtml"><span style="color:#1A202C !important" class="nodeLabel"><p>既存オリジン<br />あり?</p></span></div></foreignObject></g></g><g class="node default c" id="my-svg-flowchart-C-7" data-look="classic" transform="translate(710.9565277099609, 171)"><rect class="basic label-container" style="fill:#1A202C !important;stroke:#1A202C !important" x="-87.8203125" y="-27" width="175.640625" height="54"/><g class="label" style="color:#fff !important" transform="translate(-57.8203125, -12)"><rect/><foreignObject width="115.640625" height="24"><div style="color: rgb(255, 255, 255) !important; display: table-cell; white-space: nowrap; line-height: 1.5; max-width: 200px; text-align: center;" xmlns="http://www.w3.org/1999/xhtml"><span style="color:#fff !important" class="nodeLabel"><p>C: ハイブリッド</p></span></div></foreignObject></g></g><g class="node default a" id="my-svg-flowchart-A-9" data-look="classic" transform="translate(710.9565277099609, 275)"><rect class="basic label-container" style="fill:#BC002D !important;stroke:#BC002D !important" x="-76.328125" y="-27" width="152.65625" height="54"/><g class="label" style="color:#fff !important" transform="translate(-46.328125, -12)"><rect/><foreignObject width="92.65625" height="24"><div style="color: rgb(255, 255, 255) !important; display: table-cell; white-space: nowrap; line-height: 1.5; max-width: 200px; text-align: center;" xmlns="http://www.w3.org/1999/xhtml"><span style="color:#fff !important" class="nodeLabel"><p>A: php-wasm</p></span></div></foreignObject></g></g></g></g></g><defs><filter id="my-svg-drop-shadow" height="130%" width="130%"><feDropShadow dx="4" dy="4" stdDeviation="0" flood-opacity="0.06" flood-color="#000000"/></filter></defs><defs><filter id="my-svg-drop-shadow-small" height="150%" width="150%"><feDropShadow dx="2" dy="2" stdDeviation="0" flood-opacity="0.06" flood-color="#000000"/></filter></defs></svg>